<?xml version="1.0" standalone="no"?>
<!DOCTYPE svg PUBLIC "-//W3C//DTD SVG 1.1//EN" "http://www.w3.org/Graphics/SVG/1.1/DTD/svg11.dtd" >
<svg xmlns="http://www.w3.org/2000/svg" xmlns:xlink="http://www.w3.org/1999/xlink" version="1.1">
<metadata>
Created by FontForge 20170731 at Sat Jan 29 10:25:16 2022
 By Aleksey,,,
Copyright (c) 2002 by Michal Sahar. All rights reserved.
</metadata>
<defs>
<font id="AlenbiSans-Bold" horiz-adv-x="0" >
  <font-face 
    font-family="AlenbiSans Bold"
    font-weight="700"
    font-stretch="normal"
    units-per-em="2048"
    panose-1="0 0 8 0 0 0 0 0 0 0"
    ascent="1638"
    descent="-410"
    x-height="991"
    cap-height="1380"
    bbox="-92 -698 1849 1477"
    underline-thickness="102"
    underline-position="-307"
    unicode-range="U+0020-FB4B"
  />
<missing-glyph horiz-adv-x="909" 
d="M745 1446v-1817h-577v1817h577zM604 1325h-299v-61h119v-68h-121v-59h301v59h-119v68h119v61zM485 1090h-182v-189h301v62h-119v127zM424 1028v-65h-62v65h62zM604 852h-301v-59h121v-68h-121v-59h182v127h119v59zM604 743h-59v-120h-242v-62h301v182zM604 522h-180v-102
h61v41h60v-84h-183v145h-59v-207h301v207zM604 207h-301v-205h301v205zM545 147v-86h-183v86h183zM604 -41h-301v-59h127l-127 -86v-60h301v60h-184l127 86h57v59z" />
    <glyph glyph-name=".notdef" horiz-adv-x="909" 
d="M745 1446v-1817h-577v1817h577zM604 1325h-299v-61h119v-68h-121v-59h301v59h-119v68h119v61zM485 1090h-182v-189h301v62h-119v127zM424 1028v-65h-62v65h62zM604 852h-301v-59h121v-68h-121v-59h182v127h119v59zM604 743h-59v-120h-242v-62h301v182zM604 522h-180v-102
h61v41h60v-84h-183v145h-59v-207h301v207zM604 207h-301v-205h301v205zM545 147v-86h-183v86h183zM604 -41h-301v-59h127l-127 -86v-60h301v60h-184l127 86h57v59z" />
    <glyph glyph-name=".null" 
 />
    <glyph glyph-name="nonmarkingreturn" horiz-adv-x="682" 
 />
    <glyph glyph-name="space" unicode=" " horiz-adv-x="446" 
 />
    <glyph glyph-name="exclam" unicode="!" horiz-adv-x="622" 
d="M203 455l-56 655v236h326v-236l-55 -655h-215zM319 -33l-192 191l192 188l193 -188z" />
    <glyph glyph-name="quotedbl" unicode="&#x22;" horiz-adv-x="774" 
d="M817 1417l-219 -622l-149 32v562l-209 -594l-150 32v590h727z" />
    <glyph glyph-name="numbersign" unicode="#" horiz-adv-x="1255" 
d="M186 6l62 262h-193l-4 207h246l43 187h-160l-4 206h213l62 262h219l-62 -262h180l62 262h219l-59 -262h190l6 -206h-248l-43 -187h158l6 -207h-213l-61 -262h-219l63 262h-182l-61 -262h-220zM516 475h180l45 187h-182z" />
    <glyph glyph-name="percent" unicode="%" horiz-adv-x="1456" 
d="M313 549q-88 0 -149.5 61.5t-61.5 149.5v162q0 85 61.5 145.5t149.5 60.5h109q88 0 149.5 -60.5t61.5 -145.5v-162q0 -88 -61.5 -149.5t-149.5 -61.5h-109zM313 0l615 1128h223l-621 -1128h-217zM356 717h84v168q0 27 -18 45t-45 18h-82v-166q0 -28 17.5 -46.5
t43.5 -18.5zM1034 -2q-88 0 -149.5 61.5t-61.5 147.5v162q0 86 61.5 147.5t149.5 61.5h109q86 0 148.5 -61.5t62.5 -147.5v-162q0 -86 -62.5 -147.5t-148.5 -61.5h-109zM1077 164h84v168q0 27 -18 46t-45 19h-82v-168q0 -27 17.5 -46t43.5 -19z" />
    <glyph glyph-name="quotesingle" unicode="'" horiz-adv-x="415" 
d="M240 795l-150 32v590h369z" />
    <glyph glyph-name="parenleft" unicode="(" horiz-adv-x="602" 
d="M567 -117q-250 112 -370.5 284.5t-120.5 412.5q0 241 120.5 413.5t370.5 284.5v-94q-111 -83 -164 -231t-53 -373t53 -372.5t164 -232.5v-92z" />
    <glyph glyph-name="parenright" unicode=")" horiz-adv-x="602" 
d="M37 -117v92q110 85 163.5 233t53.5 372q0 438 -217 604v94q249 -112 370 -285t121 -413q0 -239 -121 -412t-370 -285z" />
    <glyph glyph-name="asterisk" unicode="*" horiz-adv-x="876" 
d="M260 608l-98 70l119 223l-224 103l41 122l244 -49l25 246h139l26 -246l248 49l39 -122l-229 -101l121 -219l-99 -70l-178 179z" />
    <glyph glyph-name="plus" unicode="+" horiz-adv-x="935" 
d="M342 229v236h-236v227h236v236h254v-236h235v-227h-235v-236h-254z" />
    <glyph glyph-name="comma" unicode="," horiz-adv-x="499" 
d="M233 -291l-170 35v555h347z" />
    <glyph glyph-name="hyphen" unicode="-" horiz-adv-x="882" 
d="M92 440v275h701v-275h-701z" />
    <glyph glyph-name="period" unicode="." horiz-adv-x="528" 
d="M238 -59l-201 196l201 199l202 -199z" />
    <glyph glyph-name="slash" unicode="/" horiz-adv-x="714" 
d="M31 -139l354 1462h299l-356 -1462h-297z" />
    <glyph glyph-name="zero" unicode="0" horiz-adv-x="1163" 
d="M471 -6q-161 0 -274 113t-113 274v332q0 160 113 272.5t274 112.5h221q161 0 274 -112.5t113 -272.5v-332q0 -161 -113 -274t-274 -113h-221zM543 256h221v420q0 59 -40.5 100t-100.5 41h-226v-420q0 -58 43 -99.5t103 -41.5z" />
    <glyph glyph-name="one" unicode="1" horiz-adv-x="708" 
d="M233 0v772h-178v135l293 189h209v-1096h-324z" />
    <glyph glyph-name="two" unicode="2" horiz-adv-x="976" 
d="M109 0l-56 244l174 129q203 151 262.5 214.5t59.5 135.5q0 119 -158 119q-84 0 -280 -45l-17 219q214 100 398 100q180 0 289.5 -84t109.5 -223q0 -131 -97.5 -261.5t-306.5 -279.5h412l-41 -268h-749z" />
    <glyph glyph-name="three" unicode="3" horiz-adv-x="1007" 
d="M715 678q102 -37 160.5 -122.5t58.5 -201.5q0 -165 -114.5 -277t-282.5 -112q-88 0 -191.5 18.5t-335.5 75.5l68 260q228 -47 301 -60t110 -13q51 0 85 31.5t34 80.5q0 45 -29 77t-81 42l-228 45l209 305h-399l43 269h727l27 -189z" />
    <glyph glyph-name="four" unicode="4" horiz-adv-x="1122" 
d="M621 0v199h-525l-41 207l543 724l334 -43v-632h119v-256h-119v-199h-311zM393 446h236v308z" />
    <glyph glyph-name="five" unicode="5" horiz-adv-x="993" 
d="M496 -35q-188 0 -414 29l41 252q244 -19 369 -19q54 0 87 33t33 86q0 43 -32.5 76.5t-79.5 34.5l-379 16l-23 623h744l37 -258h-494l4 -113l156 -6q161 -6 267 -108t106 -251q0 -172 -119 -283.5t-303 -111.5z" />
    <glyph glyph-name="six" unicode="6" horiz-adv-x="1071" 
d="M600 776q175 -6 284 -112t109 -271q0 -171 -136 -293.5t-325 -122.5q-192 0 -326 120t-134 290q0 153 88 281l327 481l310 -55zM526 229q75 0 127 49.5t52 118.5t-52 118.5t-127 49.5q-74 0 -127 -49.5t-53 -118.5t53 -118.5t127 -49.5z" />
    <glyph glyph-name="seven" unicode="7" horiz-adv-x="948" 
d="M264 0l277 827h-510l41 267h802l27 -185l-305 -909h-332z" />
    <glyph glyph-name="eight" unicode="8" horiz-adv-x="1114" 
d="M885 584q71 -38 111 -103.5t40 -144.5q0 -149 -140.5 -254t-338.5 -105t-338.5 105t-140.5 254q0 77 38.5 146t108.5 118q-46 34 -73 87t-27 112q0 138 125.5 234.5t304.5 96.5q181 0 307.5 -96.5t126.5 -234.5q0 -125 -104 -215zM549 901q-59 0 -100 -31t-41 -77
q0 -43 55 -71.5t199 -59.5q36 63 36 118q0 54 -41.5 87.5t-107.5 33.5zM559 215q68 0 118 39t50 94q0 35 -33 59t-112 46q-114 30 -174 49q-27 -80 -27 -133q0 -69 49 -111.5t129 -42.5z" />
    <glyph glyph-name="nine" unicode="9" horiz-adv-x="1077" 
d="M539 1128q191 0 325.5 -119.5t134.5 -289.5q0 -148 -88 -281l-327 -481l-312 55l199 318q-177 6 -285 111.5t-108 271.5q0 113 62 208.5t168 151t231 55.5zM545 541q73 0 125.5 49.5t52.5 118.5q0 70 -52 119t-126 49q-75 0 -127.5 -49t-52.5 -119q0 -69 52.5 -118.5
t127.5 -49.5z" />
    <glyph glyph-name="colon" unicode=":" horiz-adv-x="591" 
d="M295 651l-201 203l201 201l203 -201zM295 29l-201 202l201 203l203 -203z" />
    <glyph glyph-name="semicolon" unicode=";" horiz-adv-x="544" 
d="M281 649l-203 203l203 205l202 -205zM279 -291l-170 35v555h346z" />
    <glyph glyph-name="less" unicode="&#x3c;" horiz-adv-x="1017" 
d="M674 74l-602 477l602 475h293l-482 -475l482 -477h-293z" />
    <glyph glyph-name="equal" unicode="=" horiz-adv-x="960" 
d="M106 631v227h750v-227h-750zM106 274v226h750v-226h-750z" />
    <glyph glyph-name="greater" unicode="&#x3e;" horiz-adv-x="1017" 
d="M51 74l479 477l-479 475h293l602 -475l-602 -477h-293z" />
    <glyph glyph-name="question" unicode="?" horiz-adv-x="880" 
d="M154 453l-33 190q-4 20 -4 29q0 64 67 96l295 145l-426 146l82 258l572 -195q45 -15 72.5 -54t27.5 -87q0 -20 -6 -41l-88 -207l-371 -184l-14 -96h-174zM244 -33l-195 193l195 190l194 -190z" />
    <glyph glyph-name="A" unicode="A" horiz-adv-x="1253" 
d="M51 0l469 1380h215l471 -1380h-190l-148 434h-489l-143 -434h-185zM416 573h415l-135 398q-29 85 -71 252h-4q-33 -134 -70 -250z" />
    <glyph glyph-name="B" unicode="B" horiz-adv-x="1110" 
d="M432 -12q-158 0 -276 16v1358q141 29 325 29q255 0 379 -101q115 -85 115 -243q0 -100 -63 -182t-171 -122v-4q52 -13 100 -40t91 -68t68.5 -103t25.5 -135q0 -162 -117 -276q-141 -129 -477 -129zM334 797h162q138 0 218.5 64.5t80.5 166.5q0 116 -80.5 170.5
t-222.5 54.5q-100 0 -158 -12v-444zM483 127q73 0 134 14t112 44t80 83.5t29 126.5q0 90 -49.5 152t-128 88.5t-179.5 26.5h-147v-527q47 -8 149 -8z" />
    <glyph glyph-name="C" unicode="C" horiz-adv-x="1187" 
d="M756 -20q-147 0 -271 46t-216 132.5t-143.5 220t-51.5 299.5q0 160 53 295t147 229.5t228 147.5t293 53q210 0 327 -62l-43 -145q-117 57 -278 57q-246 0 -392.5 -150.5t-146.5 -418.5q0 -256 140.5 -405.5t390.5 -149.5q173 0 290 57l37 -141q-55 -27 -150.5 -46
t-213.5 -19z" />
    <glyph glyph-name="D" unicode="D" horiz-adv-x="1363" 
d="M479 -12q-179 0 -323 16v1358q198 29 379 29q375 0 559 -172q194 -178 194 -496q0 -342 -198 -537q-97 -97 -253.5 -147.5t-357.5 -50.5zM514 131q285 0 436.5 152.5t151.5 433.5q2 250 -140 391t-419 141q-124 0 -209 -18v-1090q56 -10 180 -10z" />
    <glyph glyph-name="E" unicode="E" horiz-adv-x="1007" 
d="M156 0v1380h745v-149h-567v-436h536v-148h-536v-497h598v-150h-776z" />
    <glyph glyph-name="F" unicode="F" horiz-adv-x="997" 
d="M156 0v1380h743v-149h-565v-459h522v-147h-522v-625h-178z" />
    <glyph glyph-name="G" unicode="G" horiz-adv-x="1323" 
d="M782 -14q-326 0 -516 182q-90 87 -141 221t-51 293q1 154 53 285t147 226t236 148.5t311 53.5q110 0 201 -19t143 -45l-43 -145q-132 59 -305 59q-254 0 -404.5 -148.5t-150.5 -406.5q0 -260 144.5 -408.5t388.5 -148.5q161 0 237 37v412h-280v143h454v-664
q-207 -75 -424 -75z" />
    <glyph glyph-name="H" unicode="H" horiz-adv-x="1335" 
d="M156 0v1380h178v-577h667v577h181v-1380h-181v647h-667v-647h-178z" />
    <glyph glyph-name="I" unicode="I" horiz-adv-x="489" 
d="M156 0v1380h178v-1380h-178z" />
    <glyph glyph-name="J" unicode="J" horiz-adv-x="757" 
d="M199 -23q-109 0 -191 33l27 146q71 -27 149 -27q63 0 107.5 16t79 53.5t51 105.5t16.5 167v909h178v-923q0 -134 -31 -229.5t-89 -149t-130.5 -77.5t-166.5 -24z" />
    <glyph glyph-name="K" unicode="K" horiz-adv-x="1110" 
d="M156 0v1380h178v-665h6q47 67 109 147l421 518h222l-500 -585l538 -795h-210l-455 678l-131 -152v-526h-178z" />
    <glyph glyph-name="L" unicode="L" horiz-adv-x="966" 
d="M156 0v1380h178v-1230h590v-150h-768z" />
    <glyph glyph-name="M" unicode="M" horiz-adv-x="1646" 
d="M119 0l96 1380h227l236 -667q93 -278 139 -465h6q43 172 146 465l245 667h228l86 -1380h-174l-35 606q-23 440 -21 596h-6q-71 -243 -174 -524l-244 -670h-135l-223 658q-109 323 -160 536h-4q-6 -270 -26 -610l-37 -592h-170z" />
    <glyph glyph-name="N" unicode="N" horiz-adv-x="1347" 
d="M156 0v1380h194l443 -698q144 -228 247 -449l4 3q-20 230 -20 567v577h168v-1380h-180l-439 700q-171 274 -258 461l-6 -2q15 -261 15 -569v-590h-168z" />
    <glyph glyph-name="O" unicode="O" horiz-adv-x="1411" 
d="M694 -23q-181 0 -322 87.5t-219.5 247.5t-78.5 366q0 161 48.5 297.5t133.5 230t203.5 145.5t255.5 52q280 0 450 -194t170 -504q0 -173 -50.5 -313t-138 -230t-203.5 -137.5t-249 -47.5zM705 123q137 0 239 78.5t152.5 207t50.5 287.5q0 84 -17 164t-53 152t-86.5 126.5
t-124 86.5t-159.5 32q-107 0 -193 -47t-139.5 -127.5t-82 -183t-28.5 -217.5q0 -150 50.5 -275.5t152.5 -204.5t238 -79z" />
    <glyph glyph-name="P" unicode="P" horiz-adv-x="1089" 
d="M156 0v1364q166 27 342 27q260 0 387 -115q121 -105 121 -289q0 -185 -107 -295q-69 -74 -179 -112.5t-243 -38.5q-94 0 -143 12v-553h-178zM481 684q163 0 254.5 77t91.5 218q0 133 -86.5 201.5t-238.5 68.5q-114 0 -168 -14v-537q55 -14 147 -14z" />
    <glyph glyph-name="Q" unicode="Q" horiz-adv-x="1411" 
d="M1294 -203q-268 71 -528 160q-58 20 -84 20q-124 5 -233.5 53t-193.5 134t-132.5 218t-48.5 294q0 163 48 299.5t133.5 230t204 145.5t257.5 52q138 0 254 -52t196 -144t124 -221t44 -281q0 -257 -107 -428.5t-286 -233.5v-8q224 -57 404 -88zM702 123q138 0 240.5 78
t153.5 206.5t51 288.5q0 106 -27.5 204.5t-80 179t-137.5 129t-191 48.5q-109 0 -196.5 -48t-141.5 -129t-82 -183.5t-27 -216.5q-1 -149 49.5 -274t152 -204t236.5 -79z" />
    <glyph glyph-name="R" unicode="R" horiz-adv-x="1101" 
d="M156 0v1362q145 29 342 29q142 0 238 -27t161 -86q109 -95 109 -262q0 -130 -73 -221.5t-188 -130.5v-7q151 -53 203 -278q75 -320 107 -379h-185q-28 47 -92 330q-31 143 -93 203.5t-183 64.5h-168v-598h-178zM334 733h182q142 0 226.5 71.5t84.5 190.5q0 129 -85 192.5
t-232 65.5q-118 0 -176 -16v-504z" />
    <glyph glyph-name="S" unicode="S" horiz-adv-x="1009" 
d="M438 -20q-98 0 -196.5 25t-155.5 63l45 149q147 -90 320 -90q134 0 211 64.5t77 170.5q0 96 -59.5 158.5t-200.5 116.5q-178 63 -271 157t-93 234q0 163 123.5 269t322.5 106q186 0 305 -68l-49 -145q-117 65 -262 65q-130 0 -195 -62.5t-65 -143.5q0 -93 62.5 -151
t211.5 -116q182 -70 267.5 -164t85.5 -241q0 -81 -30.5 -152t-89 -126t-152 -87t-212.5 -32z" />
    <glyph glyph-name="T" unicode="T" horiz-adv-x="1017" 
d="M418 0v1229h-420v151h1022v-151h-422v-1229h-180z" />
    <glyph glyph-name="U" unicode="U" horiz-adv-x="1325" 
d="M649 -23q-109 0 -197 32.5t-156 101t-105 184.5t-37 272v813h180v-817q0 -222 87.5 -331t233.5 -109q159 0 247.5 109t88.5 331v817h180v-805q0 -155 -39 -271.5t-110.5 -187t-164.5 -105t-208 -34.5z" />
    <glyph glyph-name="V" unicode="V" horiz-adv-x="1142" 
d="M459 0l-451 1380h193l215 -680q104 -328 147 -516h4q41 170 158 514l233 682h191l-494 -1380h-196z" />
    <glyph glyph-name="W" unicode="W" horiz-adv-x="1732" 
d="M381 0l-350 1380h188l164 -698q58 -245 102 -477h4q24 140 113 479l184 696h187l168 -700q73 -308 96 -473h4q27 139 111 477l182 696h182l-391 -1380h-186l-174 719q-70 285 -91 450h-4q-40 -220 -106 -450l-197 -719h-186z" />
    <glyph glyph-name="X" unicode="X" horiz-adv-x="1169" 
d="M51 0l422 698l-405 682h206l183 -323q85 -150 127 -234h6q49 102 125 234l188 323h205l-420 -671l430 -709h-207l-176 305q-105 170 -160 273h-4q-66 -136 -149 -275l-166 -303h-205z" />
    <glyph glyph-name="Y" unicode="Y" horiz-adv-x="1107" 
d="M463 0v586l-436 794h202l195 -381q81 -159 137 -284h4q27 62 140 284l198 381h203l-463 -792v-588h-180z" />
    <glyph glyph-name="Z" unicode="Z" horiz-adv-x="1132" 
d="M61 0v104l766 1121v6h-700v149h932v-108l-762 -1116v-6h772v-150h-1008z" />
    <glyph glyph-name="bracketleft" unicode="[" horiz-adv-x="602" 
d="M567 -117q-250 112 -370.5 284.5t-120.5 412.5q0 241 120.5 413.5t370.5 284.5v-94q-111 -83 -164 -231t-53 -373t53 -372.5t164 -232.5v-92z" />
    <glyph glyph-name="bracketright" unicode="]" horiz-adv-x="602" 
d="M37 -117v92q110 85 163.5 233t53.5 372q0 438 -217 604v94q249 -112 370 -285t121 -413q0 -239 -121 -412t-370 -285z" />
    <glyph glyph-name="a" unicode="a" horiz-adv-x="987" 
d="M375 -23q-96 0 -166.5 42t-103.5 105.5t-33 137.5q0 180 154 275.5t442 93.5v20q0 30 -3.5 56t-17.5 59.5t-37.5 57.5t-66.5 40.5t-101 16.5q-143 0 -258 -74l-41 119q136 88 326 88q88 0 155.5 -23.5t108.5 -61.5t67 -92.5t36 -109.5t10 -119v-370q0 -147 16 -238h-164
l-14 125h-6q-45 -64 -124 -106t-179 -42zM422 111q91 0 153.5 48t86.5 117q10 30 10 58v172q-420 9 -420 -223q0 -84 48.5 -128t121.5 -44z" />
    <glyph glyph-name="b" unicode="b" horiz-adv-x="1165" 
d="M643 -23q-226 0 -332 187h-6l-8 -164h-156q9 153 9 256v1198h178v-623h4q49 86 135 134.5t203 48.5q185 0 301.5 -140.5t115.5 -365.5q0 -128 -38 -231.5t-101.5 -167.5t-141.5 -98t-163 -34zM606 121q139 0 220 104.5t81 276.5q0 157 -78 262.5t-217 105.5
q-94 0 -170.5 -60t-103.5 -161q-10 -50 -10 -74v-178q0 -25 8 -65q27 -95 100 -153t170 -58z" />
    <glyph glyph-name="c" unicode="c" horiz-adv-x="917" 
d="M571 -20q-224 0 -358.5 138.5t-134.5 366.5q0 232 146 379.5t386 147.5q150 0 250 -51l-41 -140q-81 47 -209 47q-164 0 -257 -106t-93 -268q0 -169 96.5 -270t247.5 -101q112 0 221 49l31 -135q-42 -22 -118 -39.5t-167 -17.5z" />
    <glyph glyph-name="d" unicode="d" horiz-adv-x="1155" 
d="M502 -23q-182 0 -303 140.5t-121 363.5q-1 240 127.5 386.5t316.5 146.5q107 0 184.5 -43.5t114.5 -108.5h4v592h181v-1198q0 -165 8 -256h-162l-8 172h-4q-43 -87 -132 -141t-206 -54zM553 123q93 0 166.5 58t97.5 157q8 33 8 78v172q0 45 -8 76q-21 90 -91.5 149
t-168.5 59q-137 0 -217 -107.5t-80 -275.5q0 -159 76.5 -262.5t216.5 -103.5z" />
    <glyph glyph-name="e" unicode="e" horiz-adv-x="1026" 
d="M565 -20q-226 0 -356.5 136t-130.5 363q0 150 55 271t162 192.5t248 71.5q93 0 166.5 -31.5t118 -80t73.5 -113t40 -124t11 -118.5q0 -30 -6 -84h-696q3 -173 98.5 -258.5t241.5 -85.5q154 0 274 51l31 -129q-133 -61 -330 -61zM252 592h526q1 38 -5.5 75t-23.5 77.5
t-44.5 71t-73 50t-103.5 19.5q-52 0 -97 -18.5t-75 -48.5t-53 -69t-35 -78t-16 -79z" />
    <glyph glyph-name="f" unicode="f" horiz-adv-x="598" 
d="M168 0v854h-139v137h139v47q0 236 115 346q96 93 241 93q81 0 154 -29l-25 -139q-50 22 -114 22q-193 0 -193 -287v-53h240v-137h-240v-854h-178z" />
    <glyph glyph-name="g" unicode="g" horiz-adv-x="1144" 
d="M494 -428q-92 0 -182 21.5t-148 60.5l45 137q126 -78 291 -78q147 0 233 83.5t86 262.5v111h-4q-44 -74 -124.5 -120t-190.5 -46q-183 0 -302.5 138t-119.5 345q0 122 37.5 223.5t100.5 166.5t142.5 101t165.5 36q118 0 195 -50t115 -122h4l8 149h158q-9 -162 -9 -272
v-576q0 -169 -34.5 -278t-106.5 -174q-127 -119 -360 -119zM553 141q84 0 152.5 50t97.5 135q14 43 14 96v178q0 51 -10 82q-26 83 -92 136.5t-160 53.5q-131 0 -213 -102t-82 -272q0 -154 76.5 -255.5t216.5 -101.5z" />
    <glyph glyph-name="h" unicode="h" horiz-adv-x="1136" 
d="M150 0v1454h180v-618h4q45 80 129 127q87 51 184 51q44 0 87.5 -11t91.5 -40.5t84 -75t59.5 -122.5t23.5 -175v-590h-180v569q0 63 -12 114t-38 93t-71.5 65t-107.5 23q-85 0 -150.5 -51.5t-91.5 -128.5q-12 -30 -12 -86v-598h-180z" />
    <glyph glyph-name="i" unicode="i" horiz-adv-x="479" 
d="M236 1159q-47 0 -78 32.5t-31 78.5q0 48 32 80t81 32q50 0 80 -32t30 -80q2 -47 -29.5 -79t-84.5 -32zM150 0v991h180v-991h-180z" />
    <glyph glyph-name="j" unicode="j" horiz-adv-x="497" 
d="M260 1159q-49 0 -79.5 32.5t-30.5 78.5q0 48 32 80t82 32q49 0 79 -32t30 -80q2 -46 -29.5 -78.5t-83.5 -32.5zM-74 -428l-18 141q136 10 196 76q38 44 53 122t15 251v829h180v-899q0 -148 -27 -244.5t-92 -162.5q-56 -56 -141.5 -84.5t-165.5 -28.5z" />
    <glyph glyph-name="k" unicode="k" horiz-adv-x="960" 
d="M150 0v1454h178v-917h4q30 42 88 112l291 342h217l-383 -407l436 -584h-219l-342 475l-92 -102v-373h-178z" />
    <glyph glyph-name="l" unicode="l" horiz-adv-x="483" 
d="M150 0v1454h180v-1454h-180z" />
    <glyph glyph-name="m" unicode="m" horiz-adv-x="1708" 
d="M150 0v723q0 145 -9 268h158l8 -160h6q107 183 312 183q99 0 173 -54.5t107 -144.5h4q44 79 111 129q92 70 219 70q43 0 84.5 -11t86.5 -41.5t78.5 -77t55 -124t21.5 -176.5v-584h-176v561q0 145 -54 225t-161 80q-73 0 -130.5 -47t-82.5 -117q-15 -47 -15 -90v-612h-176
v594q0 123 -53.5 197.5t-153.5 74.5q-80 0 -139.5 -53t-83.5 -127q-14 -38 -14 -88v-598h-176z" />
    <glyph glyph-name="n" unicode="n" horiz-adv-x="1136" 
d="M150 0v723q0 145 -9 268h160l10 -164h4q41 78 127 132.5t201 54.5q45 0 89.5 -11t92.5 -40.5t84.5 -75t60 -122t23.5 -173.5v-592h-180v571q0 131 -54.5 212t-174.5 81q-86 0 -152 -53t-90 -131q-12 -34 -12 -84v-596h-180z" />
    <glyph glyph-name="o" unicode="o" horiz-adv-x="1124" 
d="M553 -23q-205 0 -340 140t-135 370q0 242 139.5 384.5t351.5 142.5q214 0 346 -141.5t132 -368.5q0 -132 -43 -236t-114.5 -166t-157.5 -93.5t-179 -31.5zM561 113q129 0 215 109t86 276q0 66 -17 131t-51 122t-93.5 92.5t-135.5 35.5q-77 0 -137 -33.5t-96 -89
t-54 -122.5t-18 -140q0 -164 85 -272.5t216 -108.5z" />
    <glyph glyph-name="p" unicode="p" horiz-adv-x="1165" 
d="M150 -406v1074q0 112 -9 323h162l8 -170h4q118 193 353 193q182 0 300.5 -140t118.5 -364q0 -129 -37.5 -232.5t-100.5 -168t-143 -98.5t-169 -34q-99 0 -180 41.5t-125 114.5h-4v-539h-178zM606 119q140 0 220.5 105t80.5 278q0 156 -79 262t-216 106
q-93 0 -169.5 -61.5t-102.5 -161.5q-12 -46 -12 -74v-170q0 -27 8 -73q25 -94 99.5 -152.5t170.5 -58.5z" />
    <glyph glyph-name="q" unicode="q" horiz-adv-x="1153" 
d="M825 -406v560h-4q-43 -79 -126 -128t-197 -49q-177 0 -298.5 140.5t-121.5 361.5q0 107 26.5 197.5t71 151.5t102.5 104t121 62.5t127 19.5q110 0 188 -47.5t117 -124.5h5l6 149h170q-6 -126 -6 -272v-1125h-181zM553 121q89 0 158.5 51.5t99.5 144.5q14 44 14 86v187
q0 45 -8 76q-21 87 -90.5 145.5t-167.5 58.5q-138 0 -218.5 -105.5t-80.5 -275.5q0 -102 31 -183t98.5 -133t163.5 -52z" />
    <glyph glyph-name="r" unicode="r" horiz-adv-x="669" 
d="M150 0v682q0 171 -9 309h158l6 -194h8q34 99 109 158t166 59q27 0 51 -6v-170q-27 6 -61 6q-93 0 -158 -64t-84 -168q-8 -50 -8 -84v-528h-178z" />
    <glyph glyph-name="s" unicode="s" horiz-adv-x="811" 
d="M358 -20q-164 0 -278 67l45 137q44 -29 109 -50t128 -21q94 0 143.5 41t49.5 106q0 64 -41.5 104.5t-142.5 77.5q-262 93 -262 281q0 124 93.5 207.5t248.5 83.5q140 0 243 -62l-45 -131q-90 58 -203 58q-77 0 -121 -39t-44 -97q0 -59 42.5 -94t145.5 -74
q133 -51 196.5 -121.5t63.5 -177.5q0 -133 -98.5 -214.5t-272.5 -81.5z" />
    <glyph glyph-name="t" unicode="t" horiz-adv-x="677" 
d="M455 -20q-129 0 -195 75q-70 73 -70 258v541h-153v137h153v238l177 47v-285h258v-137h-258v-535q0 -96 31 -144t104 -48q58 0 104 12l8 -135q-60 -24 -159 -24z" />
    <glyph glyph-name="u" unicode="u" horiz-adv-x="1128" 
d="M485 -23q-50 0 -95.5 11.5t-92 42t-79.5 77.5t-54 125.5t-21 178.5v579h181v-549q0 -315 221 -315q84 0 146.5 48.5t90.5 115.5q17 46 17 92v608h180v-721q0 -166 8 -270h-160l-10 162h-4q-44 -74 -126.5 -129.5t-201.5 -55.5z" />
    <glyph glyph-name="v" unicode="v" horiz-adv-x="985" 
d="M403 0l-376 991h192l195 -557q54 -147 80 -254h6q30 106 84 254l192 557h189l-390 -991h-172z" />
    <glyph glyph-name="w" unicode="w" horiz-adv-x="1507" 
d="M336 0l-299 991h184l131 -504q57 -217 74 -315h6q27 116 88 313l162 506h152l153 -495q52 -167 88 -324h6q19 121 76 322l141 497h179l-320 -991h-164l-151 473q-57 180 -88 326h-4q-30 -144 -91 -328l-159 -471h-164z" />
    <glyph glyph-name="x" unicode="x" horiz-adv-x="948" 
d="M16 0l353 506l-336 485h200l142 -213q26 -38 100 -162h6q28 49 99 164l139 211h194l-338 -479l349 -512h-205l-146 223q-30 44 -106 172h-4q-24 -42 -105 -172l-143 -223h-199z" />
    <glyph glyph-name="y" unicode="y" horiz-adv-x="964" 
d="M119 -453l-45 152q84 26 157 88q97 77 152 201q14 32 14 43q0 13 -12 47l-367 913h197l217 -585q40 -116 64 -203h4q6 19 17.5 60t23 78t22.5 69l197 581h190l-270 -706q-100 -265 -175.5 -404.5t-164.5 -216.5q-110 -97 -221 -117z" />
    <glyph glyph-name="z" unicode="z" horiz-adv-x="876" 
d="M37 0v104l448 584q38 47 129 154v4h-536v145h756l-3 -112l-442 -576q-58 -78 -127 -156v-4h580v-143h-805z" />
    <glyph glyph-name="braceleft" unicode="{" horiz-adv-x="602" 
d="M567 -117q-250 112 -370.5 284.5t-120.5 412.5q0 241 120.5 413.5t370.5 284.5v-94q-111 -83 -164 -231t-53 -373t53 -372.5t164 -232.5v-92z" />
    <glyph glyph-name="bar" unicode="|" horiz-adv-x="761" 
d="M264 -371v1801h234v-1801h-234z" />
    <glyph glyph-name="braceright" unicode="}" horiz-adv-x="602" 
d="M37 -117v92q110 85 163.5 233t53.5 372q0 438 -217 604v94q249 -112 370 -285t121 -413q0 -239 -121 -412t-370 -285z" />
    <glyph glyph-name="dotlessi" unicode="&#x131;" horiz-adv-x="479" 
d="M150 0v991h180v-991h-180z" />
    <glyph glyph-name="uni05B0" unicode="&#x5b0;" 
d="M614 -279q-36 0 -62 26.5t-26 62.5q0 35 26.5 60.5t61.5 25.5q37 0 62.5 -25.5t25.5 -60.5q0 -37 -25.5 -63t-62.5 -26zM614 -522q-36 0 -62 25t-26 61t26 62t62 26q37 0 62.5 -25.5t25.5 -62.5t-25.5 -61.5t-62.5 -24.5z" />
    <glyph glyph-name="uni05B1" unicode="&#x5b1;" 
d="M365 -279q-37 0 -63 26t-26 63q0 35 26 60.5t63 25.5q35 0 61.5 -25.5t26.5 -60.5q0 -36 -26.5 -62.5t-61.5 -26.5zM616 -279q-37 0 -62.5 26t-25.5 63q0 35 25.5 60.5t62.5 25.5t63 -25.5t26 -60.5q0 -37 -26 -63t-63 -26zM868 -279q-35 0 -60.5 26t-25.5 63
q0 35 25.5 60.5t60.5 25.5q37 0 62.5 -25.5t25.5 -60.5q0 -37 -25.5 -63t-62.5 -26zM489 -522q-36 0 -61 25t-25 61q0 37 25.5 62.5t60.5 25.5q37 0 63 -25.5t26 -62.5q0 -36 -26 -61t-63 -25zM868 -522q-36 0 -61 25t-25 61q0 37 25.5 62.5t60.5 25.5q37 0 62.5 -25.5
t25.5 -62.5t-25.5 -61.5t-62.5 -24.5z" />
    <glyph glyph-name="uni05B2" unicode="&#x5b2;" 
d="M883 -279q-39 0 -63.5 27t-24.5 66q0 37 24.5 63.5t63.5 26.5t63.5 -26.5t24.5 -63.5q0 -39 -24.5 -66t-63.5 -27zM254 -252v135h451l-3 -135h-448zM883 -522q-39 0 -63.5 26t-24.5 64q0 37 24.5 63.5t63.5 26.5t63.5 -26.5t24.5 -63.5q0 -38 -24.5 -64t-63.5 -26z" />
    <glyph glyph-name="uni05B3" unicode="&#x5b3;" 
d="M883 -279q-39 0 -63.5 27t-24.5 66q0 37 24.5 63.5t63.5 26.5t63.5 -26.5t24.5 -63.5q0 -39 -24.5 -66t-63.5 -27zM401 -479l17 227h-166v135h453l-3 -135h-165l18 -227h-154zM883 -522q-39 0 -63.5 26t-24.5 64q0 37 24.5 63.5t63.5 26.5t63.5 -26.5t24.5 -63.5
q0 -38 -24.5 -64t-63.5 -26z" />
    <glyph glyph-name="uni05B4" unicode="&#x5b4;" 
d="M614 -279q-36 0 -62 26.5t-26 62.5q0 35 26.5 60.5t61.5 25.5q37 0 62.5 -25.5t25.5 -60.5q0 -37 -25.5 -63t-62.5 -26z" />
    <glyph glyph-name="uni05B5" unicode="&#x5b5;" 
d="M676 -104q35 0 60.5 -25.5t25.5 -60.5q0 -37 -25.5 -63t-60.5 -26q-37 0 -62 25q-22 -25 -59 -25t-62.5 26t-25.5 63q0 35 25.5 60.5t62.5 25.5t59 -25q25 25 62 25z" />
    <glyph glyph-name="uni05B6" unicode="&#x5b6;" 
d="M676 -104q35 0 60.5 -25.5t25.5 -60.5q0 -37 -25.5 -63t-60.5 -26q-37 0 -62 25q-22 -25 -59 -25t-62.5 26t-25.5 63q0 35 25.5 60.5t62.5 25.5t59 -25q25 25 62 25zM614 -348q37 0 62.5 -25.5t25.5 -62.5t-25.5 -61.5t-62.5 -24.5q-36 0 -62 25t-26 61t26 62t62 26z" />
    <glyph glyph-name="uni05B7" unicode="&#x5b7;" 
d="M375 -252v135h481l-2 -135h-479z" />
    <glyph glyph-name="uni05B8" unicode="&#x5b8;" 
d="M539 -479l16 227h-180v135h481l-2 -135h-180l18 -227h-153z" />
    <glyph glyph-name="uni05B9" unicode="&#x5b9;" 
d="M614 1184q-36 0 -62 25t-26 61t26 62t62 26q37 0 62.5 -25.5t25.5 -62.5t-25.5 -61.5t-62.5 -24.5z" />
    <glyph glyph-name="uni05BA" unicode="&#x5ba;" 
d="M614 1184q-36 0 -62 25t-26 61t26 62t62 26q37 0 62.5 -25.5t25.5 -62.5t-25.5 -61.5t-62.5 -24.5z" />
    <glyph glyph-name="uni05BB" unicode="&#x5bb;" 
d="M489 -279q-35 0 -61.5 26.5t-26.5 62.5q0 35 26.5 60.5t61.5 25.5q37 0 63 -25.5t26 -60.5q0 -37 -26 -63t-63 -26zM637 -487q-37 0 -62.5 24.5t-25.5 61.5t25.5 62.5t62.5 25.5q35 0 60.5 -25.5t25.5 -62.5q0 -36 -25 -61t-61 -25zM782 -698q-35 0 -60.5 25.5
t-25.5 62.5q0 36 25 61t61 25q37 0 62.5 -24.5t25.5 -61.5t-25.5 -62.5t-62.5 -25.5z" />
    <glyph glyph-name="uni05BC" unicode="&#x5bc;" 
d="M614 524q-36 0 -62 26t-26 62t26 62t62 26q37 0 62.5 -25.5t25.5 -62.5t-25.5 -62.5t-62.5 -25.5z" />
    <glyph glyph-name="uni05BE" unicode="&#x5be;" horiz-adv-x="784" 
d="M88 809l4 287h604v-287h-608z" />
    <glyph glyph-name="uni05C1" unicode="&#x5c1;" 
d="M614 1184q-36 0 -62 25t-26 61t26 62t62 26q37 0 62.5 -25.5t25.5 -62.5t-25.5 -61.5t-62.5 -24.5z" />
    <glyph glyph-name="uni05C2" unicode="&#x5c2;" 
d="M614 1184q-36 0 -62 25t-26 61t26 62t62 26q37 0 62.5 -25.5t25.5 -62.5t-25.5 -61.5t-62.5 -24.5z" />
    <glyph glyph-name="uni05C7" unicode="&#x5c7;" 
d="M539 -479l16 227h-180v135h481l-2 -135h-180l18 -227h-153z" />
    <glyph glyph-name="uni05D0" unicode="&#x5d0;" horiz-adv-x="1228" 
d="M123 0v625l123 100l-172 217l248 203l413 -524l133 503l312 -84l-168 -608l-97 -35l97 -123l116 -92l-59 -182h-246l-377 479v-479h-323z" />
    <glyph glyph-name="uni05D1" unicode="&#x5d1;" horiz-adv-x="1105" 
d="M43 0l41 287h534v522h-532l45 287h672q56 0 95.5 -41t39.5 -97v-688l115 -39l-35 -231h-975z" />
    <glyph glyph-name="uni05D2" unicode="&#x5d2;" horiz-adv-x="798" 
d="M442 -18l-53 258l-117 -240h-241l-15 281l353 90l-31 438h-223l35 287h387q55 0 85 -34t35 -91l33 -584l62 -338z" />
    <glyph glyph-name="uni05D3" unicode="&#x5d3;" horiz-adv-x="1101" 
d="M578 0v809h-527l41 287h948v-236l-143 -35v-825h-319z" />
    <glyph glyph-name="uni05D4" unicode="&#x5d4;" horiz-adv-x="1187" 
d="M758 0v809h-658l43 287h797q57 0 97 -41t40 -97v-958h-319zM106 0l13 555l307 37l-6 -592h-314z" />
    <glyph glyph-name="uni05D5" unicode="&#x5d5;" horiz-adv-x="667" 
d="M233 0v809h-188l41 287h340q52 0 89.5 -38t37.5 -91v-967h-320z" />
    <glyph glyph-name="uni05D6" unicode="&#x5d6;" horiz-adv-x="770" 
d="M254 0v809h-209l43 287h625v-248l-144 -35v-813h-315z" />
    <glyph glyph-name="uni05D7" unicode="&#x5d7;" horiz-adv-x="1232" 
d="M139 0v731l107 78h-166l41 287h864q56 0 95.5 -39t39.5 -96v-961h-317v809h-344v-809h-320z" />
    <glyph glyph-name="uni05D8" unicode="&#x5d8;" horiz-adv-x="1187" 
d="M240 -12l-162 886l51 222h219l135 -770q62 9 126.5 32.5t107.5 53.5l84 397h-264l41 287h518l34 -207l-141 -641q-106 -95 -289.5 -163t-414.5 -97h-45z" />
    <glyph glyph-name="uni05D9" unicode="&#x5d9;" horiz-adv-x="669" 
d="M266 391v418h-223l43 287h358q52 0 88.5 -38t36.5 -91v-533z" />
    <glyph glyph-name="uni05DA" unicode="&#x5da;" horiz-adv-x="1062" 
d="M633 -373v1182h-572l43 287h713q55 0 94 -41t39 -97v-1288z" />
    <glyph glyph-name="uni05DB" unicode="&#x5db;" horiz-adv-x="1077" 
d="M47 0l43 287h563v522h-557l43 287h690q58 0 100 -44t42 -104v-735l-68 -213h-856z" />
    <glyph glyph-name="uni05DC" unicode="&#x5dc;" horiz-adv-x="1052" 
d="M324 0l305 809h-563l-13 582l303 55l6 -350h603l32 -213l-331 -883h-342z" />
    <glyph glyph-name="uni05DD" unicode="&#x5dd;" horiz-adv-x="1236" 
d="M141 0v737l101 72h-160l41 287l866 -2q56 0 95.5 -39.5t39.5 -96.5v-958h-983zM461 287h346v522h-346v-522z" />
    <glyph glyph-name="uni05DE" unicode="&#x5de;" horiz-adv-x="1212" 
d="M98 0l74 731l102 78h-196l41 287h835q62 0 105 -43t43 -105v-735l-51 -213h-510l26 285h221v524h-294l-80 -809h-316z" />
    <glyph glyph-name="uni05DF" unicode="&#x5df;" horiz-adv-x="661" 
d="M233 -371v1180h-184l41 287h328q55 0 94 -39.5t39 -95.5v-1291z" />
    <glyph glyph-name="uni05E0" unicode="&#x5e0;" horiz-adv-x="743" 
d="M33 0l45 287h237v522h-211l43 287h357q55 0 93 -39t38 -94v-963h-602z" />
    <glyph glyph-name="uni05E1" unicode="&#x5e1;" horiz-adv-x="1187" 
d="M242 -12l-172 897l67 211h961l35 -207l-121 -615q-95 -103 -287.5 -179t-433.5 -107h-49zM481 326q158 22 256 98l66 385h-408z" />
    <glyph glyph-name="uni05E2" unicode="&#x5e2;" horiz-adv-x="1163" 
d="M180 -188l-112 284q250 97 319 131l-115 45l-196 586l49 238h221l248 -760q68 37 100 65l86 695h301l13 -203l-93 -653q-128 -111 -353.5 -229t-467.5 -199z" />
    <glyph glyph-name="uni05E3" unicode="&#x5e3;" horiz-adv-x="1220" 
d="M795 -373v1182h-314v-342l-305 -43v385h-115l41 287h873q56 0 95.5 -41t39.5 -97v-1288z" />
    <glyph glyph-name="uni05E4" unicode="&#x5e4;" horiz-adv-x="1204" 
d="M106 0l44 287h630v522h-297v-315l-303 -43v358h-114l40 287h857q55 0 94 -40t39 -95v-746l-68 -215h-922z" />
    <glyph glyph-name="uni05E5" unicode="&#x5e5;" horiz-adv-x="1181" 
d="M612 -373v502l-583 819l264 178l379 -538l155 536l316 -86l-187 -620l-129 -49l101 -142v-557z" />
    <glyph glyph-name="uni05E6" unicode="&#x5e6;" horiz-adv-x="1185" 
d="M76 2l41 285h436l-514 659l256 199l395 -520l139 501l314 -88l-176 -606l-95 -35l89 -123l112 -90l-57 -182h-940z" />
    <glyph glyph-name="uni05E7" unicode="&#x5e7;" horiz-adv-x="1241" 
d="M600 0l223 809h-737l43 287h1018l33 -215l-250 -881h-330zM121 -371v914l315 39v-918z" />
    <glyph glyph-name="uni05E8" unicode="&#x5e8;" horiz-adv-x="1048" 
d="M616 0v809h-563l43 287h705q55 0 95 -41t40 -97v-958h-320z" />
    <glyph glyph-name="uni05E9" unicode="&#x5e9;" horiz-adv-x="1333" 
d="M219 -14l-141 884l45 226h225l78 -510l137 510h256v-279l-254 -356l-125 31l27 -177q131 20 254 71.5t194 115.5l68 594h272l9 -209l-68 -541q-118 -131 -366.5 -231.5t-518.5 -128.5h-92z" />
    <glyph glyph-name="uni05EA" unicode="&#x5ea;" horiz-adv-x="1284" 
d="M37 0l41 287h133v444l104 80h-221l43 285h903q54 0 94 -40t40 -95v-961h-318v811h-326v-811h-493z" />
    <glyph glyph-name="uni05F3" unicode="&#x5f3;" horiz-adv-x="415" 
d="M240 795l-150 32v590h369z" />
    <glyph glyph-name="uni05F4" unicode="&#x5f4;" horiz-adv-x="774" 
d="M817 1417l-219 -622l-149 32v562l-209 -594l-150 32v590h727z" />
    <glyph glyph-name="endash" unicode="&#x2013;" horiz-adv-x="1007" 
d="M92 440v275h823v-275h-823z" />
    <glyph glyph-name="emdash" unicode="&#x2014;" horiz-adv-x="1376" 
d="M92 440v275h1194v-275h-1194z" />
    <glyph glyph-name="quoteleft" unicode="&#x2018;" horiz-adv-x="364" 
d="M240 795l-150 32v590h369z" />
    <glyph glyph-name="quoteright" unicode="&#x2019;" horiz-adv-x="415" 
d="M240 795l-150 32v590h369z" />
    <glyph glyph-name="quotedblleft" unicode="&#x201c;" horiz-adv-x="774" 
d="M817 1417l-219 -622l-149 32v562l-209 -594l-150 32v590h727z" />
    <glyph glyph-name="quotedblright" unicode="&#x201d;" horiz-adv-x="774" 
d="M817 1417l-219 -622l-149 32v562l-209 -594l-150 32v590h727z" />
    <glyph glyph-name="bullet" unicode="&#x2022;" horiz-adv-x="716" 
d="M362 426q-105 0 -177 73t-72 179q0 105 71 176q71 74 178 74q108 0 179 -74q73 -70 73 -176t-73 -179t-179 -73z" />
    <glyph glyph-name="uni20AA" unicode="&#x20aa;" horiz-adv-x="1918" 
d="M1843 1096l6 -209l-65 -541q-119 -131 -367 -231.5t-518 -128.5h-92l-133 823h-213v-809h-305v731l104 78h-168l47 287h795l80 -510l137 510h254v-279l-252 -356l-125 31l27 -177q130 20 253.5 72t194.5 115l66 594h274z" />
    <glyph glyph-name="uniFB2A" unicode="&#xfb2a;" horiz-adv-x="1333" 
d="M1122 1184q-36 0 -62 25t-26 61t26 62t62 26q37 0 62.5 -25.5t25.5 -62.5t-25.5 -61.5t-62.5 -24.5zM219 -14l-141 884l45 226h225l78 -510l137 510h256v-279l-254 -356l-125 31l27 -177q131 20 254 71.5t194 115.5l68 594h272l9 -209l-68 -541q-118 -131 -366.5 -231.5
t-518.5 -128.5h-92z" />
    <glyph glyph-name="uniFB2B" unicode="&#xfb2b;" horiz-adv-x="1333" 
d="M227 1184q-36 0 -62 25t-26 61t26 62t62 26q37 0 62.5 -25.5t25.5 -62.5t-25.5 -61.5t-62.5 -24.5zM219 -14l-141 884l45 226h225l78 -510l137 510h256v-279l-254 -356l-125 31l27 -177q131 20 254 71.5t194 115.5l68 594h272l9 -209l-68 -541q-118 -131 -366.5 -231.5
t-518.5 -128.5h-92z" />
    <glyph glyph-name="uniFB2C" unicode="&#xfb2c;" horiz-adv-x="1333" 
d="M1122 1184q-36 0 -62 25t-26 61t26 62t62 26q37 0 62.5 -25.5t25.5 -62.5t-25.5 -61.5t-62.5 -24.5zM219 -14l-141 884l45 226h225l78 -510l137 510h256v-279l-254 -356l-125 31l27 -177q131 20 254 71.5t194 115.5l68 594h272l9 -209l-68 -541q-118 -131 -366.5 -231.5
t-518.5 -128.5h-92zM772 492q-36 0 -62 26t-26 62t26 62t62 26q37 0 62.5 -25.5t25.5 -62.5t-25.5 -62.5t-62.5 -25.5z" />
    <glyph glyph-name="uniFB2D" unicode="&#xfb2d;" horiz-adv-x="1333" 
d="M227 1184q-36 0 -62 25t-26 61t26 62t62 26q37 0 62.5 -25.5t25.5 -62.5t-25.5 -61.5t-62.5 -24.5zM219 -14l-141 884l45 226h225l78 -510l137 510h256v-279l-254 -356l-125 31l27 -177q131 20 254 71.5t194 115.5l68 594h272l9 -209l-68 -541q-118 -131 -366.5 -231.5
t-518.5 -128.5h-92zM772 492q-36 0 -62 26t-26 62t26 62t62 26q37 0 62.5 -25.5t25.5 -62.5t-25.5 -62.5t-62.5 -25.5z" />
    <glyph glyph-name="uniFB2E" unicode="&#xfb2e;" horiz-adv-x="1228" 
d="M123 0v625l123 100l-172 217l248 203l413 -524l133 503l312 -84l-168 -608l-97 -35l97 -123l116 -92l-59 -182h-246l-377 479v-479h-323zM377 -252v135h481l-2 -135h-479z" />
    <glyph glyph-name="uniFB2F" unicode="&#xfb2f;" horiz-adv-x="1228" 
d="M123 0v625l123 100l-172 217l248 203l413 -524l133 503l312 -84l-168 -608l-97 -35l97 -123l116 -92l-59 -182h-246l-377 479v-479h-323zM543 -479l16 227h-180v135h481l-2 -135h-180l18 -227h-153z" />
    <glyph glyph-name="uniFB30" unicode="&#xfb30;" horiz-adv-x="1228" 
d="M915 397l97 -123l116 -92l-59 -182h-246l-377 479v-479h-323v625l123 100l-172 217l248 203l241 -307q20 14 47 14q37 0 62.5 -25.5t25.5 -62.5q0 -38 -26 -64l63 -79l133 503l312 -84l-168 -608z" />
    <glyph glyph-name="uniFB31" unicode="&#xfb31;" horiz-adv-x="1105" 
d="M41 0l41 287h534v522h-532l45 287h672q56 0 95.5 -41t39.5 -97v-688l115 -39l-35 -231h-975zM344 461q-36 0 -62 26t-26 62t26 62t62 26q37 0 62.5 -25.5t25.5 -62.5t-25.5 -62.5t-62.5 -25.5z" />
    <glyph glyph-name="uniFB32" unicode="&#xfb32;" horiz-adv-x="798" 
d="M442 -18l-53 258l-117 -240h-241l-15 281l353 90l-31 438h-223l35 287h387q55 0 85 -34t35 -91l33 -584l62 -338zM184 475q-36 0 -62 26t-26 62t26 62t62 26q37 0 62.5 -25.5t25.5 -62.5t-25.5 -62.5t-62.5 -25.5z" />
    <glyph glyph-name="uniFB33" unicode="&#xfb33;" horiz-adv-x="1101" 
d="M578 0v809h-527l41 287h948v-236l-143 -35v-825h-319zM317 420q-36 0 -62 26t-26 62t26 62t62 26q37 0 63 -25.5t26 -62.5t-26 -62.5t-63 -25.5z" />
    <glyph glyph-name="uniFB34" unicode="&#xfb34;" horiz-adv-x="1187" 
d="M758 0v809h-658l43 287h797q57 0 97 -41t40 -97v-958h-319zM588 522q-36 0 -62 26t-26 62t26 62t62 26q37 0 62.5 -25.5t25.5 -62.5t-25.5 -62.5t-62.5 -25.5zM106 0l13 555l307 37l-6 -592h-314z" />
    <glyph glyph-name="uniFB35" unicode="&#xfb35;" horiz-adv-x="667" 
d="M233 0v809h-188l41 287h340q52 0 89.5 -38t37.5 -91v-967h-320zM80 389q-36 0 -62 26t-26 62t26 62t62 26q37 0 62.5 -25.5t25.5 -62.5t-25.5 -62.5t-62.5 -25.5z" />
    <glyph glyph-name="uniFB36" unicode="&#xfb36;" horiz-adv-x="770" 
d="M254 0v809h-209l43 287h625v-248l-144 -35v-813h-315zM111 393q-36 0 -62 26t-26 62t26 62t62 26q37 0 62.5 -25.5t25.5 -62.5t-25.5 -62.5t-62.5 -25.5z" />
    <glyph glyph-name="uniFB38" unicode="&#xfb38;" horiz-adv-x="1187" 
d="M240 -12l-162 886l51 222h219l135 -770q62 9 126.5 32.5t107.5 53.5l84 397h-264l41 287h518l34 -207l-141 -641q-106 -95 -289.5 -163t-414.5 -97h-45zM594 510q-36 0 -62 26t-26 62t26 62t62 26q37 0 62.5 -25.5t25.5 -62.5t-25.5 -62.5t-62.5 -25.5z" />
    <glyph glyph-name="uniFB39" unicode="&#xfb39;" horiz-adv-x="669" 
d="M266 391v418h-223l43 287h358q52 0 88.5 -38t36.5 -91v-533zM94 518q-36 0 -62 26t-26 62t26 62t62 26q37 0 62.5 -25.5t25.5 -62.5t-25.5 -62.5t-62.5 -25.5z" />
    <glyph glyph-name="uniFB3A" unicode="&#xfb3a;" horiz-adv-x="1062" 
d="M633 -373v1182h-572l43 287h713q55 0 94 -41t39 -97v-1288zM305 412q-36 0 -62 26t-26 62t26 62t62 26q37 0 62.5 -25.5t25.5 -62.5t-25.5 -62.5t-62.5 -25.5z" />
    <glyph glyph-name="uniFB3B" unicode="&#xfb3b;" horiz-adv-x="1077" 
d="M47 0l43 287h563v522h-557l43 287h690q58 0 100 -44t42 -104v-735l-68 -213h-856zM369 457q-36 0 -62 26t-26 62t26 62t62 26q37 0 62.5 -25.5t25.5 -62.5t-25.5 -62.5t-62.5 -25.5z" />
    <glyph glyph-name="uniFB3C" unicode="&#xfb3c;" horiz-adv-x="1052" 
d="M324 0l305 809h-563l-13 582l303 55l6 -350h603l32 -213l-331 -883h-342zM276 471q-36 0 -62 26t-26 62t26 62t62 26q37 0 63 -25.5t26 -62.5t-26 -62.5t-63 -25.5z" />
    <glyph glyph-name="uniFB3E" unicode="&#xfb3e;" horiz-adv-x="1212" 
d="M98 0l74 731l102 78h-196l41 287h835q62 0 105 -43t43 -105v-735l-51 -213h-510l26 285h221v524h-294l-80 -809h-316zM627 461q-36 0 -62 26t-26 62t26 62t62 26q37 0 62.5 -25.5t25.5 -62.5t-25.5 -62.5t-62.5 -25.5z" />
    <glyph glyph-name="uniFB40" unicode="&#xfb40;" horiz-adv-x="743" 
d="M31 0l45 287h237v522h-211l43 287h357q55 0 93 -39t38 -94v-963h-602zM168 461q-36 0 -62 26t-26 62t26 62t62 26q37 0 62.5 -25.5t25.5 -62.5t-25.5 -62.5t-62.5 -25.5z" />
    <glyph glyph-name="uniFB41" unicode="&#xfb41;" horiz-adv-x="1187" 
d="M240 -12l-172 897l67 211h961l34 -207l-120 -615q-95 -103 -287.5 -179t-433.5 -107h-49zM479 326q158 22 256 98l66 385h-408zM596 508q-36 0 -62 26t-26 62t26 62t62 26q37 0 62.5 -25.5t25.5 -62.5t-25.5 -62.5t-62.5 -25.5z" />
    <glyph glyph-name="uniFB43" unicode="&#xfb43;" horiz-adv-x="1220" 
d="M795 -373v1182h-314v-342l-305 -43v385h-115l41 287h873q56 0 95.5 -41t39.5 -97v-1288zM614 524q-36 0 -62 26t-26 62t26 62t62 26q37 0 62.5 -25.5t25.5 -62.5t-25.5 -62.5t-62.5 -25.5z" />
    <glyph glyph-name="uniFB44" unicode="&#xfb44;" horiz-adv-x="1204" 
d="M106 0l44 287h630v522h-297v-315l-303 -43v358h-114l40 287h857q55 0 94 -40t39 -95v-746l-68 -215h-922zM629 512q-35 0 -60.5 25.5t-25.5 62.5t25.5 62.5t60.5 25.5q37 0 62.5 -25.5t25.5 -62.5t-25.5 -62.5t-62.5 -25.5z" />
    <glyph glyph-name="uniFB46" unicode="&#xfb46;" horiz-adv-x="1185" 
d="M74 2l41 285h436l-514 659l256 199l395 -520l139 501l314 -88l-176 -606l-95 -35l88 -123l113 -90l-57 -182h-940zM225 354q-36 0 -62 26t-26 62t26 62t62 26q37 0 62.5 -25.5t25.5 -62.5t-25.5 -62.5t-62.5 -25.5z" />
    <glyph glyph-name="uniFB47" unicode="&#xfb47;" horiz-adv-x="1241" 
d="M600 0l223 809h-737l43 287h1018l33 -215l-250 -881h-330zM596 553q-36 0 -62 26t-26 62t26 62t62 26q37 0 62.5 -25.5t25.5 -62.5t-25.5 -62.5t-62.5 -25.5zM121 -371v914l315 39v-918z" />
    <glyph glyph-name="uniFB48" unicode="&#xfb48;" horiz-adv-x="1048" 
d="M616 0v809h-563l43 287h705q55 0 95 -41t40 -97v-958h-320zM358 416q-36 0 -62 26t-26 62t26 62t62 26q37 0 62.5 -25.5t25.5 -62.5t-25.5 -62.5t-62.5 -25.5z" />
    <glyph glyph-name="uniFB49" unicode="&#xfb49;" horiz-adv-x="1333" 
d="M219 -14l-141 884l45 226h225l78 -510l137 510h256v-279l-254 -356l-125 31l27 -177q131 20 254 71.5t194 115.5l68 594h272l9 -209l-68 -541q-118 -131 -366.5 -231.5t-518.5 -128.5h-92zM772 492q-36 0 -62 26t-26 62t26 62t62 26q37 0 62.5 -25.5t25.5 -62.5
t-25.5 -62.5t-62.5 -25.5z" />
    <glyph glyph-name="uniFB4A" unicode="&#xfb4a;" horiz-adv-x="1284" 
d="M37 0l41 287h133v444l104 80h-221l43 285h903q54 0 94 -40t40 -95v-961h-318v811h-326v-811h-493zM694 416q-36 0 -62 26t-26 62t26 62t62 26q37 0 62.5 -25.5t25.5 -62.5t-25.5 -62.5t-62.5 -25.5z" />
    <glyph glyph-name="uniFB4B" unicode="&#xfb4b;" horiz-adv-x="667" 
d="M303 1169q-36 0 -62 25t-26 61t26 62t62 26q37 0 62.5 -25.5t25.5 -62.5t-25.5 -61.5t-62.5 -24.5zM233 0v809h-188l41 287h340q52 0 89.5 -38t37.5 -91v-967h-320z" />
    </font>
</defs>
</svg>
