<?xml version="1.0" standalone="no"?>
<!DOCTYPE svg PUBLIC "-//W3C//DTD SVG 1.1//EN" "http://www.w3.org/Graphics/SVG/1.1/DTD/svg11.dtd" >
<svg xmlns="http://www.w3.org/2000/svg" xmlns:xlink="http://www.w3.org/1999/xlink" version="1.1">
<metadata>
Created by FontForge 20170731 at Sat Jan 29 10:25:16 2022
 By Aleksey,,,
Copyright (c) 2002 by Michal Sahar. All rights reserved.
</metadata>
<defs>
<font id="AlenbiSans-Regular" horiz-adv-x="0" >
  <font-face 
    font-family="AlenbiSans"
    font-weight="400"
    font-stretch="normal"
    units-per-em="2048"
    panose-1="0 0 5 0 0 0 0 0 0 0"
    ascent="1638"
    descent="-410"
    x-height="991"
    cap-height="1380"
    bbox="-92 -666 1776 1477"
    underline-thickness="102"
    underline-position="-307"
    unicode-range="U+0020-FB4B"
  />
<missing-glyph horiz-adv-x="909" 
d="M745 1450v-1819h-575v1819h575zM606 1329h-301v-61h119v-68h-121v-59h303v59h-121v68h121v61zM485 1094h-182v-189h303v62h-121v127zM424 1032v-65h-59v65h59zM606 856h-303v-61h121v-68h-121v-59h182v127h121v61zM606 745h-61v-118h-242v-62h303v180zM606 524h-182v-102
h61v43h60v-86h-180v145h-62v-205h303v205zM606 209h-303v-205h303v205zM545 150v-87h-180v87h180zM606 -37h-303v-61h127l-127 -84v-62h303v62h-186l127 84h59v61z" />
    <glyph glyph-name=".notdef" horiz-adv-x="909" 
d="M745 1450v-1819h-575v1819h575zM606 1329h-301v-61h119v-68h-121v-59h303v59h-121v68h121v61zM485 1094h-182v-189h303v62h-121v127zM424 1032v-65h-59v65h59zM606 856h-303v-61h121v-68h-121v-59h182v127h121v61zM606 745h-61v-118h-242v-62h303v180zM606 524h-182v-102
h61v43h60v-86h-180v145h-62v-205h303v205zM606 209h-303v-205h303v205zM545 150v-87h-180v87h180zM606 -37h-303v-61h127l-127 -84v-62h303v62h-186l127 84h59v61z" />
    <glyph glyph-name=".null" 
 />
    <glyph glyph-name="nonmarkingreturn" horiz-adv-x="682" 
 />
    <glyph glyph-name="space" unicode=" " horiz-adv-x="454" 
 />
    <glyph glyph-name="exclam" unicode="!" horiz-adv-x="542" 
d="M184 408l-39 684v229h236v-229l-37 -684h-160zM260 -55l-160 157l160 156l158 -156z" />
    <glyph glyph-name="quotedbl" unicode="&#x22;" horiz-adv-x="669" 
d="M197 860l-113 21v508h274zM518 860l-112 21v508h276z" />
    <glyph glyph-name="numbersign" unicode="#" horiz-adv-x="1239" 
d="M205 2l61 268h-196l-4 176h241l51 226h-163l-5 176h209l62 268h182l-61 -268h209l61 268h180l-59 -268h196l5 -176h-244l-51 -226h163l5 -176h-209l-62 -268h-182l63 268h-208l-62 -268h-182zM489 446h209l52 226h-209z" />
    <glyph glyph-name="percent" unicode="%" horiz-adv-x="1396" 
d="M301 563q-83 0 -141 59t-58 142v166q0 82 58 140t141 58h109q83 0 140.5 -58t57.5 -140v-166q0 -84 -57.5 -142.5t-140.5 -58.5h-109zM305 0l604 1128h193l-610 -1128h-187zM344 698h105v199q0 34 -24.5 59t-59.5 25h-103v-197q0 -35 24 -60.5t58 -25.5zM985 -4
q-82 0 -139.5 59t-57.5 142v165q0 82 57.5 140.5t139.5 58.5h111q82 0 140 -58.5t58 -140.5v-165q0 -83 -58 -142t-140 -59h-111zM1030 131h103v199q0 34 -23.5 59t-58.5 25h-103v-197q0 -36 23.5 -61t58.5 -25z" />
    <glyph glyph-name="quotesingle" unicode="'" horiz-adv-x="346" 
d="M197 860l-113 21v508h274z" />
    <glyph glyph-name="parenleft" unicode="(" horiz-adv-x="595" 
d="M535 -100q-441 220 -441 680q0 232 108.5 400t332.5 280v-54q-115 -94 -168.5 -243.5t-53.5 -382.5q0 -232 53.5 -381.5t168.5 -245.5v-53z" />
    <glyph glyph-name="parenright" unicode=")" horiz-adv-x="595" 
d="M61 -100v53q115 96 168.5 245.5t53.5 381.5q0 233 -53.5 382.5t-168.5 243.5v54q224 -112 332.5 -280t108.5 -400q0 -460 -441 -680z" />
    <glyph glyph-name="asterisk" unicode="*" horiz-adv-x="874" 
d="M244 623l-64 45l129 241l-241 113l28 82l264 -53l25 266h98l27 -266l270 53l27 -82l-250 -111l131 -235l-63 -47l-193 192z" />
    <glyph glyph-name="plus" unicode="+" horiz-adv-x="917" 
d="M358 238v249h-247v183h247v250h201v-250h248v-183h-248v-249h-201z" />
    <glyph glyph-name="comma" unicode="," horiz-adv-x="456" 
d="M201 -283l-117 21v498h268z" />
    <glyph glyph-name="hyphen" unicode="-" horiz-adv-x="890" 
d="M106 459v198h678v-198h-678z" />
    <glyph glyph-name="period" unicode="." horiz-adv-x="468" 
d="M209 -47l-162 158l162 159l162 -159z" />
    <glyph glyph-name="slash" unicode="/" horiz-adv-x="675" 
d="M53 -139l353 1462h217l-355 -1462h-215z" />
    <glyph glyph-name="zero" unicode="0" horiz-adv-x="1122" 
d="M449 -6q-143 0 -244 104t-101 250v397q0 147 101 251t244 104h225q143 0 243.5 -103.5t100.5 -251.5v-397q0 -146 -101 -250t-243 -104h-225zM485 197h303v542q0 63 -43 107.5t-106 44.5h-305v-543q0 -62 45 -106.5t106 -44.5z" />
    <glyph glyph-name="one" unicode="1" horiz-adv-x="645" 
d="M246 2v854h-201v94l262 146h170v-1094h-231z" />
    <glyph glyph-name="two" unicode="2" horiz-adv-x="937" 
d="M111 0l-37 199l186 161q220 189 282 263t62 155q0 137 -178 137q-112 0 -317 -65l-15 178q218 90 389 90q162 0 263.5 -83t101.5 -216q0 -138 -107 -273t-385 -347h494l-31 -199h-708z" />
    <glyph glyph-name="three" unicode="3" horiz-adv-x="948" 
d="M618 666q119 -38 184.5 -123t65.5 -203q0 -158 -110 -262.5t-277 -104.5q-60 0 -143 15t-313 67l51 195q210 -47 281.5 -60.5t109.5 -13.5q74 0 121 46t47 118q0 137 -166 178l-166 37l242 344h-473l30 197h699l16 -156z" />
    <glyph glyph-name="four" unicode="4" horiz-adv-x="1075" 
d="M653 0v213h-565l-29 174l543 725l272 -33v-673h127v-193h-127v-213h-221zM313 403h342v455z" />
    <glyph glyph-name="five" unicode="5" horiz-adv-x="944" 
d="M494 -27q-208 0 -404 29l31 186q214 -20 354 -20q78 0 124 46t46 124q0 60 -46 105t-112 46l-366 21l-21 586h695l20 -195h-504l8 -207l201 -10q148 -8 246 -104.5t98 -235.5q0 -158 -106 -264.5t-264 -106.5z" />
    <glyph glyph-name="six" unicode="6" horiz-adv-x="1034" 
d="M537 768q180 0 294.5 -108t114.5 -277q0 -167 -126.5 -286.5t-303.5 -119.5q-117 0 -216 53t-156.5 144.5t-57.5 200.5q0 150 78 268l325 490l220 -37l-211 -330q12 2 39 2zM512 174q89 0 152 61.5t63 149.5q0 89 -62 151t-153 62q-89 0 -152 -62.5t-63 -150.5t63 -149.5
t152 -61.5z" />
    <glyph glyph-name="seven" unicode="7" horiz-adv-x="888" 
d="M272 0l308 899h-549l28 197h756l16 -154l-319 -942h-240z" />
    <glyph glyph-name="eight" unicode="8" horiz-adv-x="1089" 
d="M842 586q159 -81 159 -252q0 -97 -61 -178.5t-166 -128.5t-229 -47q-189 0 -323 103.5t-134 250.5q0 79 40 149.5t114 120.5q-48 34 -75.5 88t-27.5 115q0 135 118.5 230.5t285.5 95.5q169 0 288 -95.5t119 -230.5q0 -130 -108 -221zM537 946q-78 0 -130.5 -37t-52.5 -94
q0 -54 68.5 -89t261.5 -79q47 85 47 146q0 63 -57 108t-137 45zM551 172q88 0 154.5 49t66.5 115q0 43 -46 74.5t-153 60.5q-30 10 -102.5 30t-110.5 34q-38 -115 -38 -179q0 -77 66.5 -130.5t162.5 -53.5z" />
    <glyph glyph-name="nine" unicode="9" horiz-adv-x="1036" 
d="M518 1128q117 0 216 -52.5t156.5 -144t57.5 -200.5q0 -150 -78 -268l-325 -490l-219 37l211 330q-12 -2 -39 -2q-180 0 -295 108t-115 277q0 167 126.5 286t303.5 119zM522 508q89 0 152 62.5t63 150.5t-63 149.5t-152 61.5t-152 -61.5t-63 -149.5q0 -89 62 -151t153 -62
z" />
    <glyph glyph-name="colon" unicode=":" horiz-adv-x="552" 
d="M276 674l-161 162l161 159l162 -159zM276 43l-161 160l161 162l162 -162z" />
    <glyph glyph-name="semicolon" unicode=";" horiz-adv-x="532" 
d="M268 672l-166 164l166 165l166 -165zM254 -283l-117 21v498h269z" />
    <glyph glyph-name="less" unicode="&#x3c;" horiz-adv-x="923" 
d="M653 72l-567 477l567 475h205l-452 -475l452 -477h-205z" />
    <glyph glyph-name="equal" unicode="=" horiz-adv-x="923" 
d="M111 653v181h702v-181h-702zM111 317v181h702v-181h-702z" />
    <glyph glyph-name="greater" unicode="&#x3e;" horiz-adv-x="923" 
d="M66 72l452 477l-452 475h204l568 -475l-568 -477h-204z" />
    <glyph glyph-name="question" unicode="?" horiz-adv-x="854" 
d="M135 408l-29 192q-2 10 -2 23q0 49 50 77l372 226l-454 159l69 195l537 -186q38 -13 61 -47t23 -76q0 -13 -4 -33l-68 -166l-401 -242l-15 -122h-139zM209 -55l-160 157l160 158l160 -158z" />
    <glyph glyph-name="A" unicode="A" horiz-adv-x="1253" 
d="M51 0l469 1380h215l471 -1380h-190l-148 434h-489l-143 -434h-185zM416 573h415l-135 398q-29 85 -71 252h-4q-33 -134 -70 -250z" />
    <glyph glyph-name="B" unicode="B" horiz-adv-x="1110" 
d="M432 -12q-158 0 -276 16v1358q141 29 325 29q255 0 379 -101q115 -85 115 -243q0 -100 -63 -182t-171 -122v-4q52 -13 100 -40t91 -68t68.5 -103t25.5 -135q0 -162 -117 -276q-141 -129 -477 -129zM334 797h162q138 0 218.5 64.5t80.5 166.5q0 116 -80.5 170.5
t-222.5 54.5q-100 0 -158 -12v-444zM483 127q73 0 134 14t112 44t80 83.5t29 126.5q0 90 -49.5 152t-128 88.5t-179.5 26.5h-147v-527q47 -8 149 -8z" />
    <glyph glyph-name="C" unicode="C" horiz-adv-x="1187" 
d="M756 -20q-147 0 -271 46t-216 132.5t-143.5 220t-51.5 299.5q0 160 53 295t147 229.5t228 147.5t293 53q210 0 327 -62l-43 -145q-117 57 -278 57q-246 0 -392.5 -150.5t-146.5 -418.5q0 -256 140.5 -405.5t390.5 -149.5q173 0 290 57l37 -141q-55 -27 -150.5 -46
t-213.5 -19z" />
    <glyph glyph-name="D" unicode="D" horiz-adv-x="1363" 
d="M479 -12q-179 0 -323 16v1358q198 29 379 29q375 0 559 -172q194 -178 194 -496q0 -342 -198 -537q-97 -97 -253.5 -147.5t-357.5 -50.5zM514 131q285 0 436.5 152.5t151.5 433.5q2 250 -140 391t-419 141q-124 0 -209 -18v-1090q56 -10 180 -10z" />
    <glyph glyph-name="E" unicode="E" horiz-adv-x="1007" 
d="M156 0v1380h745v-149h-567v-436h536v-148h-536v-497h598v-150h-776z" />
    <glyph glyph-name="F" unicode="F" horiz-adv-x="997" 
d="M156 0v1380h743v-149h-565v-459h522v-147h-522v-625h-178z" />
    <glyph glyph-name="G" unicode="G" horiz-adv-x="1323" 
d="M782 -14q-326 0 -516 182q-90 87 -141 221t-51 293q1 154 53 285t147 226t236 148.5t311 53.5q110 0 201 -19t143 -45l-43 -145q-132 59 -305 59q-254 0 -404.5 -148.5t-150.5 -406.5q0 -260 144.5 -408.5t388.5 -148.5q161 0 237 37v412h-280v143h454v-664
q-207 -75 -424 -75z" />
    <glyph glyph-name="H" unicode="H" horiz-adv-x="1335" 
d="M156 0v1380h178v-577h667v577h181v-1380h-181v647h-667v-647h-178z" />
    <glyph glyph-name="I" unicode="I" horiz-adv-x="489" 
d="M156 0v1380h178v-1380h-178z" />
    <glyph glyph-name="J" unicode="J" horiz-adv-x="757" 
d="M199 -23q-109 0 -191 33l27 146q71 -27 149 -27q63 0 107.5 16t79 53.5t51 105.5t16.5 167v909h178v-923q0 -134 -31 -229.5t-89 -149t-130.5 -77.5t-166.5 -24z" />
    <glyph glyph-name="K" unicode="K" horiz-adv-x="1110" 
d="M156 0v1380h178v-665h6q47 67 109 147l421 518h222l-500 -585l538 -795h-210l-455 678l-131 -152v-526h-178z" />
    <glyph glyph-name="L" unicode="L" horiz-adv-x="966" 
d="M156 0v1380h178v-1230h590v-150h-768z" />
    <glyph glyph-name="M" unicode="M" horiz-adv-x="1646" 
d="M119 0l96 1380h227l236 -667q93 -278 139 -465h6q43 172 146 465l245 667h228l86 -1380h-174l-35 606q-23 440 -21 596h-6q-71 -243 -174 -524l-244 -670h-135l-223 658q-109 323 -160 536h-4q-6 -270 -26 -610l-37 -592h-170z" />
    <glyph glyph-name="N" unicode="N" horiz-adv-x="1347" 
d="M156 0v1380h194l443 -698q144 -228 247 -449l4 3q-20 230 -20 567v577h168v-1380h-180l-439 700q-171 274 -258 461l-6 -2q15 -261 15 -569v-590h-168z" />
    <glyph glyph-name="O" unicode="O" horiz-adv-x="1411" 
d="M694 -23q-181 0 -322 87.5t-219.5 247.5t-78.5 366q0 161 48.5 297.5t133.5 230t203.5 145.5t255.5 52q280 0 450 -194t170 -504q0 -173 -50.5 -313t-138 -230t-203.5 -137.5t-249 -47.5zM705 123q137 0 239 78.5t152.5 207t50.5 287.5q0 84 -17 164t-53 152t-86.5 126.5
t-124 86.5t-159.5 32q-107 0 -193 -47t-139.5 -127.5t-82 -183t-28.5 -217.5q0 -150 50.5 -275.5t152.5 -204.5t238 -79z" />
    <glyph glyph-name="P" unicode="P" horiz-adv-x="1089" 
d="M156 0v1364q166 27 342 27q260 0 387 -115q121 -105 121 -289q0 -185 -107 -295q-69 -74 -179 -112.5t-243 -38.5q-94 0 -143 12v-553h-178zM481 684q163 0 254.5 77t91.5 218q0 133 -86.5 201.5t-238.5 68.5q-114 0 -168 -14v-537q55 -14 147 -14z" />
    <glyph glyph-name="Q" unicode="Q" horiz-adv-x="1411" 
d="M1294 -203q-268 71 -528 160q-58 20 -84 20q-124 5 -233.5 53t-193.5 134t-132.5 218t-48.5 294q0 163 48 299.5t133.5 230t204 145.5t257.5 52q138 0 254 -52t196 -144t124 -221t44 -281q0 -257 -107 -428.5t-286 -233.5v-8q224 -57 404 -88zM702 123q138 0 240.5 78
t153.5 206.5t51 288.5q0 106 -27.5 204.5t-80 179t-137.5 129t-191 48.5q-109 0 -196.5 -48t-141.5 -129t-82 -183.5t-27 -216.5q-1 -149 49.5 -274t152 -204t236.5 -79z" />
    <glyph glyph-name="R" unicode="R" horiz-adv-x="1101" 
d="M156 0v1362q145 29 342 29q142 0 238 -27t161 -86q109 -95 109 -262q0 -130 -73 -221.5t-188 -130.5v-7q151 -53 203 -278q75 -320 107 -379h-185q-28 47 -92 330q-31 143 -93 203.5t-183 64.5h-168v-598h-178zM334 733h182q142 0 226.5 71.5t84.5 190.5q0 129 -85 192.5
t-232 65.5q-118 0 -176 -16v-504z" />
    <glyph glyph-name="S" unicode="S" horiz-adv-x="1009" 
d="M438 -20q-98 0 -196.5 25t-155.5 63l45 149q147 -90 320 -90q134 0 211 64.5t77 170.5q0 96 -59.5 158.5t-200.5 116.5q-178 63 -271 157t-93 234q0 163 123.5 269t322.5 106q186 0 305 -68l-49 -145q-117 65 -262 65q-130 0 -195 -62.5t-65 -143.5q0 -93 62.5 -151
t211.5 -116q182 -70 267.5 -164t85.5 -241q0 -81 -30.5 -152t-89 -126t-152 -87t-212.5 -32z" />
    <glyph glyph-name="T" unicode="T" horiz-adv-x="1017" 
d="M418 0v1229h-420v151h1022v-151h-422v-1229h-180z" />
    <glyph glyph-name="U" unicode="U" horiz-adv-x="1325" 
d="M649 -23q-109 0 -197 32.5t-156 101t-105 184.5t-37 272v813h180v-817q0 -222 87.5 -331t233.5 -109q159 0 247.5 109t88.5 331v817h180v-805q0 -155 -39 -271.5t-110.5 -187t-164.5 -105t-208 -34.5z" />
    <glyph glyph-name="V" unicode="V" horiz-adv-x="1142" 
d="M459 0l-451 1380h193l215 -680q104 -328 147 -516h4q41 170 158 514l233 682h191l-494 -1380h-196z" />
    <glyph glyph-name="W" unicode="W" horiz-adv-x="1732" 
d="M381 0l-350 1380h188l164 -698q58 -245 102 -477h4q24 140 113 479l184 696h187l168 -700q73 -308 96 -473h4q27 139 111 477l182 696h182l-391 -1380h-186l-174 719q-70 285 -91 450h-4q-40 -220 -106 -450l-197 -719h-186z" />
    <glyph glyph-name="X" unicode="X" horiz-adv-x="1169" 
d="M51 0l422 698l-405 682h206l183 -323q85 -150 127 -234h6q49 102 125 234l188 323h205l-420 -671l430 -709h-207l-176 305q-105 170 -160 273h-4q-66 -136 -149 -275l-166 -303h-205z" />
    <glyph glyph-name="Y" unicode="Y" horiz-adv-x="1107" 
d="M463 0v586l-436 794h202l195 -381q81 -159 137 -284h4q27 62 140 284l198 381h203l-463 -792v-588h-180z" />
    <glyph glyph-name="Z" unicode="Z" horiz-adv-x="1132" 
d="M61 0v104l766 1121v6h-700v149h932v-108l-762 -1116v-6h772v-150h-1008z" />
    <glyph glyph-name="bracketleft" unicode="[" horiz-adv-x="595" 
d="M535 -100q-441 220 -441 680q0 232 108.5 400t332.5 280v-54q-115 -94 -168.5 -243.5t-53.5 -382.5q0 -232 53.5 -381.5t168.5 -245.5v-53z" />
    <glyph glyph-name="bracketright" unicode="]" horiz-adv-x="595" 
d="M61 -100v53q115 96 168.5 245.5t53.5 381.5q0 233 -53.5 382.5t-168.5 243.5v54q224 -112 332.5 -280t108.5 -400q0 -460 -441 -680z" />
    <glyph glyph-name="a" unicode="a" horiz-adv-x="987" 
d="M375 -23q-96 0 -166.5 42t-103.5 105.5t-33 137.5q0 180 154 275.5t442 93.5v20q0 30 -3.5 56t-17.5 59.5t-37.5 57.5t-66.5 40.5t-101 16.5q-143 0 -258 -74l-41 119q136 88 326 88q88 0 155.5 -23.5t108.5 -61.5t67 -92.5t36 -109.5t10 -119v-370q0 -147 16 -238h-164
l-14 125h-6q-45 -64 -124 -106t-179 -42zM422 111q91 0 153.5 48t86.5 117q10 30 10 58v172q-420 9 -420 -223q0 -84 48.5 -128t121.5 -44z" />
    <glyph glyph-name="b" unicode="b" horiz-adv-x="1165" 
d="M643 -23q-226 0 -332 187h-6l-8 -164h-156q9 153 9 256v1198h178v-623h4q49 86 135 134.5t203 48.5q185 0 301.5 -140.5t115.5 -365.5q0 -128 -38 -231.5t-101.5 -167.5t-141.5 -98t-163 -34zM606 121q139 0 220 104.5t81 276.5q0 157 -78 262.5t-217 105.5
q-94 0 -170.5 -60t-103.5 -161q-10 -50 -10 -74v-178q0 -25 8 -65q27 -95 100 -153t170 -58z" />
    <glyph glyph-name="c" unicode="c" horiz-adv-x="917" 
d="M571 -20q-224 0 -358.5 138.5t-134.5 366.5q0 232 146 379.5t386 147.5q150 0 250 -51l-41 -140q-81 47 -209 47q-164 0 -257 -106t-93 -268q0 -169 96.5 -270t247.5 -101q112 0 221 49l31 -135q-42 -22 -118 -39.5t-167 -17.5z" />
    <glyph glyph-name="d" unicode="d" horiz-adv-x="1155" 
d="M502 -23q-182 0 -303 140.5t-121 363.5q-1 240 127.5 386.5t316.5 146.5q107 0 184.5 -43.5t114.5 -108.5h4v592h181v-1198q0 -165 8 -256h-162l-8 172h-4q-43 -87 -132 -141t-206 -54zM553 123q93 0 166.5 58t97.5 157q8 33 8 78v172q0 45 -8 76q-21 90 -91.5 149
t-168.5 59q-137 0 -217 -107.5t-80 -275.5q0 -159 76.5 -262.5t216.5 -103.5z" />
    <glyph glyph-name="e" unicode="e" horiz-adv-x="1026" 
d="M565 -20q-226 0 -356.5 136t-130.5 363q0 150 55 271t162 192.5t248 71.5q93 0 166.5 -31.5t118 -80t73.5 -113t40 -124t11 -118.5q0 -30 -6 -84h-696q3 -173 98.5 -258.5t241.5 -85.5q154 0 274 51l31 -129q-133 -61 -330 -61zM252 592h526q1 38 -5.5 75t-23.5 77.5
t-44.5 71t-73 50t-103.5 19.5q-52 0 -97 -18.5t-75 -48.5t-53 -69t-35 -78t-16 -79z" />
    <glyph glyph-name="f" unicode="f" horiz-adv-x="598" 
d="M168 0v854h-139v137h139v47q0 236 115 346q96 93 241 93q81 0 154 -29l-25 -139q-50 22 -114 22q-193 0 -193 -287v-53h240v-137h-240v-854h-178z" />
    <glyph glyph-name="g" unicode="g" horiz-adv-x="1144" 
d="M494 -428q-92 0 -182 21.5t-148 60.5l45 137q126 -78 291 -78q147 0 233 83.5t86 262.5v111h-4q-44 -74 -124.5 -120t-190.5 -46q-183 0 -302.5 138t-119.5 345q0 122 37.5 223.5t100.5 166.5t142.5 101t165.5 36q118 0 195 -50t115 -122h4l8 149h158q-9 -162 -9 -272
v-576q0 -169 -34.5 -278t-106.5 -174q-127 -119 -360 -119zM553 141q84 0 152.5 50t97.5 135q14 43 14 96v178q0 51 -10 82q-26 83 -92 136.5t-160 53.5q-131 0 -213 -102t-82 -272q0 -154 76.5 -255.5t216.5 -101.5z" />
    <glyph glyph-name="h" unicode="h" horiz-adv-x="1136" 
d="M150 0v1454h180v-618h4q45 80 129 127q87 51 184 51q44 0 87.5 -11t91.5 -40.5t84 -75t59.5 -122.5t23.5 -175v-590h-180v569q0 63 -12 114t-38 93t-71.5 65t-107.5 23q-85 0 -150.5 -51.5t-91.5 -128.5q-12 -30 -12 -86v-598h-180z" />
    <glyph glyph-name="i" unicode="i" horiz-adv-x="479" 
d="M236 1159q-47 0 -78 32.5t-31 78.5q0 48 32 80t81 32q50 0 80 -32t30 -80q2 -47 -29.5 -79t-84.5 -32zM150 0v991h180v-991h-180z" />
    <glyph glyph-name="j" unicode="j" horiz-adv-x="497" 
d="M260 1159q-49 0 -79.5 32.5t-30.5 78.5q0 48 32 80t82 32q49 0 79 -32t30 -80q2 -46 -29.5 -78.5t-83.5 -32.5zM-74 -428l-18 141q136 10 196 76q38 44 53 122t15 251v829h180v-899q0 -148 -27 -244.5t-92 -162.5q-56 -56 -141.5 -84.5t-165.5 -28.5z" />
    <glyph glyph-name="k" unicode="k" horiz-adv-x="960" 
d="M150 0v1454h178v-917h4q30 42 88 112l291 342h217l-383 -407l436 -584h-219l-342 475l-92 -102v-373h-178z" />
    <glyph glyph-name="l" unicode="l" horiz-adv-x="483" 
d="M150 0v1454h180v-1454h-180z" />
    <glyph glyph-name="m" unicode="m" horiz-adv-x="1708" 
d="M150 0v723q0 145 -9 268h158l8 -160h6q107 183 312 183q99 0 173 -54.5t107 -144.5h4q44 79 111 129q92 70 219 70q43 0 84.5 -11t86.5 -41.5t78.5 -77t55 -124t21.5 -176.5v-584h-176v561q0 145 -54 225t-161 80q-73 0 -130.5 -47t-82.5 -117q-15 -47 -15 -90v-612h-176
v594q0 123 -53.5 197.5t-153.5 74.5q-80 0 -139.5 -53t-83.5 -127q-14 -38 -14 -88v-598h-176z" />
    <glyph glyph-name="n" unicode="n" horiz-adv-x="1136" 
d="M150 0v723q0 145 -9 268h160l10 -164h4q41 78 127 132.5t201 54.5q45 0 89.5 -11t92.5 -40.5t84.5 -75t60 -122t23.5 -173.5v-592h-180v571q0 131 -54.5 212t-174.5 81q-86 0 -152 -53t-90 -131q-12 -34 -12 -84v-596h-180z" />
    <glyph glyph-name="o" unicode="o" horiz-adv-x="1124" 
d="M553 -23q-205 0 -340 140t-135 370q0 242 139.5 384.5t351.5 142.5q214 0 346 -141.5t132 -368.5q0 -132 -43 -236t-114.5 -166t-157.5 -93.5t-179 -31.5zM561 113q129 0 215 109t86 276q0 66 -17 131t-51 122t-93.5 92.5t-135.5 35.5q-77 0 -137 -33.5t-96 -89
t-54 -122.5t-18 -140q0 -164 85 -272.5t216 -108.5z" />
    <glyph glyph-name="p" unicode="p" horiz-adv-x="1165" 
d="M150 -406v1074q0 112 -9 323h162l8 -170h4q118 193 353 193q182 0 300.5 -140t118.5 -364q0 -129 -37.5 -232.5t-100.5 -168t-143 -98.5t-169 -34q-99 0 -180 41.5t-125 114.5h-4v-539h-178zM606 119q140 0 220.5 105t80.5 278q0 156 -79 262t-216 106
q-93 0 -169.5 -61.5t-102.5 -161.5q-12 -46 -12 -74v-170q0 -27 8 -73q25 -94 99.5 -152.5t170.5 -58.5z" />
    <glyph glyph-name="q" unicode="q" horiz-adv-x="1153" 
d="M825 -406v560h-4q-43 -79 -126 -128t-197 -49q-177 0 -298.5 140.5t-121.5 361.5q0 107 26.5 197.5t71 151.5t102.5 104t121 62.5t127 19.5q110 0 188 -47.5t117 -124.5h5l6 149h170q-6 -126 -6 -272v-1125h-181zM553 121q89 0 158.5 51.5t99.5 144.5q14 44 14 86v187
q0 45 -8 76q-21 87 -90.5 145.5t-167.5 58.5q-138 0 -218.5 -105.5t-80.5 -275.5q0 -102 31 -183t98.5 -133t163.5 -52z" />
    <glyph glyph-name="r" unicode="r" horiz-adv-x="669" 
d="M150 0v682q0 171 -9 309h158l6 -194h8q34 99 109 158t166 59q27 0 51 -6v-170q-27 6 -61 6q-93 0 -158 -64t-84 -168q-8 -50 -8 -84v-528h-178z" />
    <glyph glyph-name="s" unicode="s" horiz-adv-x="811" 
d="M358 -20q-164 0 -278 67l45 137q44 -29 109 -50t128 -21q94 0 143.5 41t49.5 106q0 64 -41.5 104.5t-142.5 77.5q-262 93 -262 281q0 124 93.5 207.5t248.5 83.5q140 0 243 -62l-45 -131q-90 58 -203 58q-77 0 -121 -39t-44 -97q0 -59 42.5 -94t145.5 -74
q133 -51 196.5 -121.5t63.5 -177.5q0 -133 -98.5 -214.5t-272.5 -81.5z" />
    <glyph glyph-name="t" unicode="t" horiz-adv-x="677" 
d="M455 -20q-129 0 -195 75q-70 73 -70 258v541h-153v137h153v238l177 47v-285h258v-137h-258v-535q0 -96 31 -144t104 -48q58 0 104 12l8 -135q-60 -24 -159 -24z" />
    <glyph glyph-name="u" unicode="u" horiz-adv-x="1128" 
d="M485 -23q-50 0 -95.5 11.5t-92 42t-79.5 77.5t-54 125.5t-21 178.5v579h181v-549q0 -315 221 -315q84 0 146.5 48.5t90.5 115.5q17 46 17 92v608h180v-721q0 -166 8 -270h-160l-10 162h-4q-44 -74 -126.5 -129.5t-201.5 -55.5z" />
    <glyph glyph-name="v" unicode="v" horiz-adv-x="985" 
d="M403 0l-376 991h192l195 -557q54 -147 80 -254h6q30 106 84 254l192 557h189l-390 -991h-172z" />
    <glyph glyph-name="w" unicode="w" horiz-adv-x="1507" 
d="M336 0l-299 991h184l131 -504q57 -217 74 -315h6q27 116 88 313l162 506h152l153 -495q52 -167 88 -324h6q19 121 76 322l141 497h179l-320 -991h-164l-151 473q-57 180 -88 326h-4q-30 -144 -91 -328l-159 -471h-164z" />
    <glyph glyph-name="x" unicode="x" horiz-adv-x="948" 
d="M16 0l353 506l-336 485h200l142 -213q26 -38 100 -162h6q28 49 99 164l139 211h194l-338 -479l349 -512h-205l-146 223q-30 44 -106 172h-4q-24 -42 -105 -172l-143 -223h-199z" />
    <glyph glyph-name="y" unicode="y" horiz-adv-x="964" 
d="M119 -453l-45 152q84 26 157 88q97 77 152 201q14 32 14 43q0 13 -12 47l-367 913h197l217 -585q40 -116 64 -203h4q6 19 17.5 60t23 78t22.5 69l197 581h190l-270 -706q-100 -265 -175.5 -404.5t-164.5 -216.5q-110 -97 -221 -117z" />
    <glyph glyph-name="z" unicode="z" horiz-adv-x="876" 
d="M37 0v104l448 584q38 47 129 154v4h-536v145h756l-3 -112l-442 -576q-58 -78 -127 -156v-4h580v-143h-805z" />
    <glyph glyph-name="braceleft" unicode="{" horiz-adv-x="595" 
d="M535 -100q-441 220 -441 680q0 232 108.5 400t332.5 280v-54q-115 -94 -168.5 -243.5t-53.5 -382.5q0 -232 53.5 -381.5t168.5 -245.5v-53z" />
    <glyph glyph-name="bar" unicode="|" horiz-adv-x="772" 
d="M295 -369v1792h182v-1792h-182z" />
    <glyph glyph-name="braceright" unicode="}" horiz-adv-x="595" 
d="M61 -100v53q115 96 168.5 245.5t53.5 381.5q0 233 -53.5 382.5t-168.5 243.5v54q224 -112 332.5 -280t108.5 -400q0 -460 -441 -680z" />
    <glyph glyph-name="dotlessi" unicode="&#x131;" horiz-adv-x="479" 
d="M150 0v991h180v-991h-180z" />
    <glyph glyph-name="uni05B0" unicode="&#x5b0;" 
d="M614 -270q-33 0 -56 22t-23 55t23.5 56.5t55.5 23.5q34 0 57 -23t23 -57q0 -33 -23 -55t-57 -22zM614 -494q-32 0 -55.5 23t-23.5 57q0 33 23 55.5t56 22.5q34 0 57 -22t23 -56t-23 -57t-57 -23z" />
    <glyph glyph-name="uni05B1" unicode="&#x5b1;" 
d="M387 -270q-33 0 -56.5 22t-23.5 55t23.5 56.5t56.5 23.5t56.5 -23.5t23.5 -56.5t-23.5 -55t-56.5 -22zM616 -270q-34 0 -56.5 21.5t-22.5 55.5t22.5 57t56.5 23t57 -23t23 -57q0 -33 -23 -55t-57 -22zM846 -270q-33 0 -56.5 22t-23.5 55t23.5 56.5t56.5 23.5t56.5 -23.5
t23.5 -56.5t-23.5 -55t-56.5 -22zM502 -494q-33 0 -56.5 23.5t-23.5 56.5t23.5 55.5t56.5 22.5q34 0 56 -22t22 -56t-22 -57t-56 -23zM846 -494q-33 0 -56.5 23.5t-23.5 56.5t23.5 55.5t56.5 22.5t56.5 -22.5t23.5 -55.5t-23.5 -56.5t-56.5 -23.5z" />
    <glyph glyph-name="uni05B2" unicode="&#x5b2;" 
d="M870 -270q-34 0 -56.5 23t-22.5 57q0 33 23 56t56 23q34 0 57 -23.5t23 -55.5q0 -34 -23 -57t-57 -23zM279 -242v115h436v-115h-436zM870 -494q-34 0 -56.5 23t-22.5 57t22.5 57t56.5 23t57 -23t23 -57t-23 -57t-57 -23z" />
    <glyph glyph-name="uni05B3" unicode="&#x5b3;" 
d="M870 -270q-34 0 -56.5 23t-22.5 57q0 33 23 56t56 23q34 0 57 -23.5t23 -55.5q0 -34 -23 -57t-57 -23zM430 -465l12 223h-166v115h437v-115h-166l16 -223h-133zM870 -494q-34 0 -56.5 23t-22.5 57t22.5 57t56.5 23t57 -23t23 -57t-23 -57t-57 -23z" />
    <glyph glyph-name="uni05B4" unicode="&#x5b4;" 
d="M616 -270q-34 0 -57.5 22t-23.5 55q0 34 23.5 57t57.5 23q32 0 55 -23t23 -57q0 -33 -22.5 -55t-55.5 -22z" />
    <glyph glyph-name="uni05B5" unicode="&#x5b5;" 
d="M676 -113q34 0 57 -23t23 -57q0 -33 -23 -55t-57 -22q-39 0 -62 26q-23 -26 -59 -26q-34 0 -58 22t-24 55q0 34 24 57t58 23q37 0 59 -28q22 28 62 28z" />
    <glyph glyph-name="uni05B6" unicode="&#x5b6;" 
d="M676 -113q34 0 57 -23t23 -57q0 -33 -23 -55t-57 -22q-39 0 -62 26q-23 -26 -59 -26q-34 0 -58 22t-24 55q0 34 24 57t58 23q37 0 59 -28q22 28 62 28zM614 -336q34 0 57 -22t23 -56t-23 -57t-57 -23q-32 0 -55.5 23t-23.5 57q0 33 23 55.5t56 22.5z" />
    <glyph glyph-name="uni05B7" unicode="&#x5b7;" 
d="M393 -242v115h445l-2 -115h-443z" />
    <glyph glyph-name="uni05B8" unicode="&#x5b8;" 
d="M551 -465l12 223h-170v115h445l-2 -115h-170l18 -223h-133z" />
    <glyph glyph-name="uni05B9" unicode="&#x5b9;" 
d="M614 1188q-32 0 -55.5 23t-23.5 57q0 32 23.5 55t55.5 23q34 0 57 -23t23 -55q0 -34 -23 -57t-57 -23z" />
    <glyph glyph-name="uni05BA" unicode="&#x5ba;" 
d="M614 1188q-32 0 -55.5 23t-23.5 57q0 32 23.5 55t55.5 23q34 0 57 -23t23 -55q0 -34 -23 -57t-57 -23z" />
    <glyph glyph-name="uni05BB" unicode="&#x5bb;" 
d="M502 -270q-34 0 -58 22t-24 55q0 34 24 57t58 23q32 0 55 -23t23 -57q0 -33 -22.5 -55t-55.5 -22zM635 -469q-34 0 -57 23t-23 57t23 56t57 22q33 0 56.5 -22.5t23.5 -55.5t-23.5 -56.5t-56.5 -23.5zM770 -666q-32 0 -56 23t-24 55q0 33 23.5 56.5t56.5 23.5q32 0 55 -23
t23 -57q0 -32 -23 -55t-55 -23z" />
    <glyph glyph-name="uni05BC" unicode="&#x5bc;" 
d="M614 532q-32 0 -55.5 23t-23.5 57t23.5 57t55.5 23q34 0 57 -23t23 -57t-23 -57t-57 -23z" />
    <glyph glyph-name="uni05BE" unicode="&#x5be;" horiz-adv-x="753" 
d="M98 893l4 203h553v-203h-557z" />
    <glyph glyph-name="uni05C1" unicode="&#x5c1;" 
d="M614 1188q-32 0 -55.5 23t-23.5 57q0 32 23.5 55t55.5 23q34 0 57 -23t23 -55q0 -34 -23 -57t-57 -23z" />
    <glyph glyph-name="uni05C2" unicode="&#x5c2;" 
d="M614 1188q-32 0 -55.5 23t-23.5 57q0 32 23.5 55t55.5 23q34 0 57 -23t23 -55q0 -34 -23 -57t-57 -23z" />
    <glyph glyph-name="uni05C7" unicode="&#x5c7;" 
d="M551 -465l12 223h-170v115h445l-2 -115h-170l18 -223h-133z" />
    <glyph glyph-name="uni05D0" unicode="&#x5d0;" horiz-adv-x="1200" 
d="M145 0v653l131 101l-167 221l178 149l463 -608l145 594l225 -57l-162 -633l-106 -35l137 -180l103 -82l-39 -123h-195l-481 631v-631h-232z" />
    <glyph glyph-name="uni05D1" unicode="&#x5d1;" horiz-adv-x="1069" 
d="M63 0l29 203h565v690h-553l31 203h666q37 0 62.5 -27t25.5 -65v-805l121 -35l-25 -164h-922z" />
    <glyph glyph-name="uni05D2" unicode="&#x5d2;" horiz-adv-x="722" 
d="M418 -16l-47 219l-138 -203h-184l-8 221l315 72l-28 600h-201l27 203h319q36 0 60 -25.5t26 -62.5l27 -650l61 -321z" />
    <glyph glyph-name="uni05D3" unicode="&#x5d3;" horiz-adv-x="1073" 
d="M631 0v893h-565l30 203h901v-172l-137 -27v-897h-229z" />
    <glyph glyph-name="uni05D4" unicode="&#x5d4;" horiz-adv-x="1165" 
d="M805 0v893h-686l31 203h798q37 0 63.5 -27t26.5 -65v-1004h-233zM131 0l10 582l221 26l-6 -608h-225z" />
    <glyph glyph-name="uni05D5" unicode="&#x5d5;" horiz-adv-x="608" 
d="M242 0v893h-174l30 203h293q34 0 58 -25t24 -59v-1012h-231z" />
    <glyph glyph-name="uni05D6" unicode="&#x5d6;" horiz-adv-x="706" 
d="M266 0v893h-198l32 203h539v-172l-143 -31v-893h-230z" />
    <glyph glyph-name="uni05D7" unicode="&#x5d7;" horiz-adv-x="1218" 
d="M168 0v811l100 82h-176l29 203h878q36 0 62 -27t26 -65v-1004h-229v893h-459v-893h-231z" />
    <glyph glyph-name="uni05D8" unicode="&#x5d8;" horiz-adv-x="1175" 
d="M248 -12l-131 946l37 162h155l117 -869q72 8 178 44.5t162 74.5l96 547h-334l29 203h510l27 -158l-131 -698q-96 -88 -267 -154.5t-383 -97.5h-65z" />
    <glyph glyph-name="uni05D9" unicode="&#x5d9;" horiz-adv-x="630" 
d="M293 455v438h-230l31 203h342q34 0 58 -25t24 -59v-518z" />
    <glyph glyph-name="uni05DA" unicode="&#x5da;" horiz-adv-x="1048" 
d="M690 -371v1264h-610l31 203h725q35 0 60.5 -27t25.5 -65v-1334z" />
    <glyph glyph-name="uni05DB" unicode="&#x5db;" horiz-adv-x="1054" 
d="M66 0l28 203h608v690h-587l28 203h678q43 0 75 -35t32 -82v-815l-47 -164h-815z" />
    <glyph glyph-name="uni05DC" unicode="&#x5dc;" horiz-adv-x="1017" 
d="M348 0l340 893h-610l-12 518l215 39l6 -354h639l24 -154l-358 -942h-244z" />
    <glyph glyph-name="uni05DD" unicode="&#x5dd;" horiz-adv-x="1228" 
d="M174 0v827l82 66h-160l29 203h885q36 0 62 -27t26 -65v-1004h-924zM403 203h465v690h-465v-690z" />
    <glyph glyph-name="uni05DE" unicode="&#x5de;" horiz-adv-x="1189" 
d="M127 0l80 811l96 82h-201l29 203h805q51 0 87 -37t36 -88v-807l-43 -164h-500l19 201h303v692h-404l-84 -893h-223z" />
    <glyph glyph-name="uni05DF" unicode="&#x5df;" horiz-adv-x="591" 
d="M236 -369v1262h-175l31 203h289q35 0 59.5 -25.5t24.5 -60.5v-1338z" />
    <glyph glyph-name="uni05E0" unicode="&#x5e0;" horiz-adv-x="706" 
d="M53 0l31 203h264v690h-209l31 203h315q39 0 66 -28t27 -67v-1001h-525z" />
    <glyph glyph-name="uni05E1" unicode="&#x5e1;" horiz-adv-x="1171" 
d="M252 -12l-152 952l50 156h915l29 -158l-131 -686q-86 -88 -257 -158.5t-382 -105.5h-72zM422 227q102 15 195 52t153 86l90 528h-532z" />
    <glyph glyph-name="uni05E2" unicode="&#x5e2;" horiz-adv-x="1120" 
d="M182 -152l-86 201q249 96 328 139l-109 37l-217 682l29 189h160l264 -838q137 70 174 117l84 721h211l10 -154l-82 -663q-116 -109 -329.5 -229.5t-436.5 -201.5z" />
    <glyph glyph-name="uni05E3" unicode="&#x5e3;" horiz-adv-x="1183" 
d="M829 -373v1266h-395v-401l-225 -43v444h-115l31 203h844q37 0 62.5 -27t25.5 -65v-1334z" />
    <glyph glyph-name="uni05E4" unicode="&#x5e4;" horiz-adv-x="1175" 
d="M127 0l31 203h655v690h-397v-363l-226 -43v406h-112l28 205l850 -2q37 0 62.5 -26.5t25.5 -63.5v-842l-49 -164h-868z" />
    <glyph glyph-name="uni05E5" unicode="&#x5e5;" horiz-adv-x="1093" 
d="M616 -373v510l-575 844l188 129l410 -600l166 600l227 -66l-182 -628l-117 -39l107 -158v-549z" />
    <glyph glyph-name="uni05E6" unicode="&#x5e6;" horiz-adv-x="1118" 
d="M96 0l29 203h498l-553 786l182 133l416 -602l161 588l226 -66l-178 -624l-109 -33l123 -180l94 -74l-39 -131h-850z" />
    <glyph glyph-name="uni05E7" unicode="&#x5e7;" horiz-adv-x="1202" 
d="M616 0l256 893h-757l32 203h953l26 -156l-274 -940h-236zM145 -369v953l228 30v-954z" />
    <glyph glyph-name="uni05E8" unicode="&#x5e8;" horiz-adv-x="1019" 
d="M659 0v893h-585l30 203h701q36 0 62 -27t26 -65v-1004h-234z" />
    <glyph glyph-name="uni05E9" unicode="&#x5e9;" horiz-adv-x="1304" 
d="M250 -12l-139 936l30 172h158l84 -586l207 586h182v-199l-256 -467l-125 31l33 -236q159 29 297.5 88t222.5 133l72 650h186l12 -160l-71 -592q-114 -127 -339.5 -227t-463.5 -129h-90z" />
    <glyph glyph-name="uni05EA" unicode="&#x5ea;" horiz-adv-x="1257" 
d="M61 0l29 203h150v608l98 82h-221l30 203h897q34 0 60 -26t26 -64v-1006h-229v893h-430v-893h-410z" />
    <glyph glyph-name="uni05F3" unicode="&#x5f3;" horiz-adv-x="346" 
d="M197 860l-113 21v508h274z" />
    <glyph glyph-name="uni05F4" unicode="&#x5f4;" horiz-adv-x="669" 
d="M197 860l-113 21v508h274zM518 860l-112 21v508h276z" />
    <glyph glyph-name="endash" unicode="&#x2013;" horiz-adv-x="999" 
d="M106 459v198h787v-198h-787z" />
    <glyph glyph-name="emdash" unicode="&#x2014;" horiz-adv-x="1396" 
d="M106 459v198h1184v-198h-1184z" />
    <glyph glyph-name="quoteleft" unicode="&#x2018;" horiz-adv-x="331" 
d="M197 860l-113 21v508h274z" />
    <glyph glyph-name="quoteright" unicode="&#x2019;" horiz-adv-x="346" 
d="M197 860l-113 21v508h274z" />
    <glyph glyph-name="quotedblleft" unicode="&#x201c;" horiz-adv-x="669" 
d="M197 860l-113 21v508h274zM518 860l-112 21v508h276z" />
    <glyph glyph-name="quotedblright" unicode="&#x201d;" horiz-adv-x="669" 
d="M197 860l-113 21v508h274zM518 860l-112 21v508h276z" />
    <glyph glyph-name="bullet" unicode="&#x2022;" horiz-adv-x="716" 
d="M362 426q-105 0 -177 73t-72 179q0 105 71 176q71 74 178 74q108 0 179 -74q73 -70 73 -176t-73 -179t-179 -73z" />
    <glyph glyph-name="uni20AA" unicode="&#x20aa;" horiz-adv-x="1865" 
d="M1765 1096l11 -160l-70 -592q-114 -127 -339.5 -227t-463.5 -129h-90l-137 905h-279v-893h-227v811l98 82h-176l31 203h737l86 -586l207 586h182v-199l-256 -467l-125 31l33 -236q159 29 297.5 88t220.5 133l72 650h188z" />
    <glyph glyph-name="uniFB2A" unicode="&#xfb2a;" horiz-adv-x="1304" 
d="M1110 1188q-33 0 -56.5 23.5t-23.5 56.5q0 32 24 55t56 23q34 0 57 -23t23 -55q0 -34 -23 -57t-57 -23zM250 -12l-139 936l30 172h158l84 -586l207 586h182v-199l-256 -467l-125 31l33 -236q159 29 297.5 88t222.5 133l72 650h186l12 -160l-71 -592
q-114 -127 -339.5 -227t-463.5 -129h-90z" />
    <glyph glyph-name="uniFB2B" unicode="&#xfb2b;" horiz-adv-x="1304" 
d="M197 1188q-33 0 -56.5 23.5t-23.5 56.5q0 32 24 55t56 23q33 0 56 -23t23 -55q0 -34 -22.5 -57t-56.5 -23zM250 -12l-139 936l30 172h158l84 -586l207 586h182v-199l-256 -467l-125 31l33 -236q159 29 297.5 88t222.5 133l72 650h186l12 -160l-71 -592
q-114 -127 -339.5 -227t-463.5 -129h-90z" />
    <glyph glyph-name="uniFB2C" unicode="&#xfb2c;" horiz-adv-x="1304" 
d="M1110 1188q-33 0 -56.5 23.5t-23.5 56.5q0 32 24 55t56 23q34 0 57 -23t23 -55q0 -34 -23 -57t-57 -23zM250 -12l-139 936l30 172h158l84 -586l207 586h182v-199l-256 -467l-125 31l33 -236q159 29 297.5 88t222.5 133l72 650h186l12 -160l-71 -592
q-114 -127 -339.5 -227t-463.5 -129h-90zM762 461q-33 0 -56.5 23.5t-23.5 56.5t23.5 56.5t56.5 23.5q34 0 57 -23t23 -57t-23 -57t-57 -23z" />
    <glyph glyph-name="uniFB2D" unicode="&#xfb2d;" horiz-adv-x="1304" 
d="M197 1188q-33 0 -56.5 23.5t-23.5 56.5q0 32 24 55t56 23q33 0 56 -23t23 -55q0 -34 -22.5 -57t-56.5 -23zM250 -12l-139 936l30 172h158l84 -586l207 586h182v-199l-256 -467l-125 31l33 -236q159 29 297.5 88t222.5 133l72 650h186l12 -160l-71 -592
q-114 -127 -339.5 -227t-463.5 -129h-90zM762 461q-33 0 -56.5 23.5t-23.5 56.5t23.5 56.5t56.5 23.5q34 0 57 -23t23 -57t-23 -57t-57 -23z" />
    <glyph glyph-name="uniFB2E" unicode="&#xfb2e;" horiz-adv-x="1200" 
d="M145 0v653l131 101l-167 221l178 149l463 -608l145 594l225 -57l-162 -633l-106 -35l137 -180l103 -82l-39 -123h-195l-481 631v-631h-232zM385 -242v115h444l-2 -115h-442z" />
    <glyph glyph-name="uniFB2F" unicode="&#xfb2f;" horiz-adv-x="1200" 
d="M145 0v653l131 101l-167 221l178 149l463 -608l145 594l225 -57l-162 -633l-106 -35l137 -180l103 -82l-39 -123h-195l-481 631v-631h-232zM543 -465l12 223h-170v115h444l-2 -115h-170l19 -223h-133z" />
    <glyph glyph-name="uniFB30" unicode="&#xfb30;" horiz-adv-x="1200" 
d="M852 385l137 -180l103 -82l-39 -123h-195l-268 352q-24 -39 -70 -39q-33 0 -56.5 23.5t-23.5 56.5q0 27 16.5 48.5t43.5 29.5l-123 160v-631h-232v653l131 101l-167 221l178 149l463 -608l145 594l225 -57l-162 -633z" />
    <glyph glyph-name="uniFB31" unicode="&#xfb31;" horiz-adv-x="1069" 
d="M63 0l29 203h565v690h-553l31 203h666q37 0 62.5 -27t25.5 -65v-805l121 -35l-25 -164h-922zM362 469q-32 0 -55.5 23.5t-23.5 56.5t23.5 56.5t55.5 23.5q34 0 57 -23t23 -57t-23 -57t-57 -23z" />
    <glyph glyph-name="uniFB32" unicode="&#xfb32;" horiz-adv-x="722" 
d="M418 -16l-47 219l-138 -203h-184l-8 221l315 72l-28 600h-201l27 203h319q36 0 60 -25.5t26 -62.5l27 -650l61 -321zM180 481q-33 0 -56.5 23.5t-23.5 56.5t23.5 56.5t56.5 23.5q34 0 57 -23t23 -57t-23 -57t-57 -23z" />
    <glyph glyph-name="uniFB33" unicode="&#xfb33;" horiz-adv-x="1073" 
d="M631 0v893h-565l30 203h901v-172l-137 -27v-897h-229zM332 457q-33 0 -56.5 23.5t-23.5 56.5t23.5 56t56.5 23q34 0 57 -22.5t23 -56.5t-23 -57t-57 -23z" />
    <glyph glyph-name="uniFB34" unicode="&#xfb34;" horiz-adv-x="1165" 
d="M805 0v893h-686l31 203h798q37 0 63.5 -27t26.5 -65v-1004h-233zM575 563q-33 0 -56 23.5t-23 56.5t23 56.5t56 23.5q34 0 57 -23t23 -57t-23 -57t-57 -23zM131 0l10 582l221 26l-6 -608h-225z" />
    <glyph glyph-name="uniFB35" unicode="&#xfb35;" horiz-adv-x="608" 
d="M242 0v893h-174l30 203h293q34 0 58 -25t24 -59v-1012h-231zM80 434q-33 0 -56.5 23.5t-23.5 56.5t23.5 56.5t56.5 23.5q34 0 57 -23t23 -57t-23 -57t-57 -23z" />
    <glyph glyph-name="uniFB36" unicode="&#xfb36;" horiz-adv-x="706" 
d="M266 0v893h-198l32 203h539v-172l-143 -31v-893h-230zM121 451q-33 0 -56.5 23t-23.5 56t23.5 56.5t56.5 23.5q34 0 57 -23t23 -57t-23 -56.5t-57 -22.5z" />
    <glyph glyph-name="uniFB38" unicode="&#xfb38;" horiz-adv-x="1175" 
d="M248 -12l-131 946l37 162h155l117 -869q72 8 178 44.5t162 74.5l96 547h-334l29 203h510l27 -158l-131 -698q-96 -88 -267 -154.5t-383 -97.5h-65zM584 526q-33 0 -56.5 23.5t-23.5 56.5t23.5 56.5t56.5 23.5q34 0 57 -23t23 -57t-23 -57t-57 -23z" />
    <glyph glyph-name="uniFB39" unicode="&#xfb39;" horiz-adv-x="630" 
d="M293 455v438h-230l31 203h342q34 0 58 -25t24 -59v-518zM123 604q-33 0 -56.5 23.5t-23.5 56.5t23.5 56.5t56.5 23.5t56.5 -23.5t23.5 -56.5t-23.5 -56.5t-56.5 -23.5z" />
    <glyph glyph-name="uniFB3A" unicode="&#xfb3a;" horiz-adv-x="1048" 
d="M690 -371v1264h-610l31 203h725q35 0 60.5 -27t25.5 -65v-1334zM336 455q-33 0 -56.5 23.5t-23.5 56.5t23.5 56t56.5 23q34 0 57 -22.5t23 -56.5t-23 -57t-57 -23z" />
    <glyph glyph-name="uniFB3B" unicode="&#xfb3b;" horiz-adv-x="1054" 
d="M66 0l28 203h608v690h-587l28 203h678q43 0 75 -35t32 -82v-815l-47 -164h-815zM383 465q-33 0 -56.5 23.5t-23.5 56.5t23.5 56.5t56.5 23.5q34 0 57 -23t23 -57t-23 -57t-57 -23z" />
    <glyph glyph-name="uniFB3C" unicode="&#xfb3c;" horiz-adv-x="1017" 
d="M348 0l340 893h-610l-12 518l215 39l6 -354h639l24 -154l-358 -942h-244zM319 543q-33 0 -56 23.5t-23 56.5t23 56t56 23q34 0 57 -22.5t23 -56.5t-23 -57t-57 -23z" />
    <glyph glyph-name="uniFB3E" unicode="&#xfb3e;" horiz-adv-x="1189" 
d="M127 0l80 811l96 82h-201l29 203h805q51 0 87 -37t36 -88v-807l-43 -164h-500l19 201h303v692h-404l-84 -893h-223zM616 469q-32 0 -55.5 23.5t-23.5 56.5t23.5 56.5t55.5 23.5q34 0 57 -23t23 -57t-23 -57t-57 -23z" />
    <glyph glyph-name="uniFB40" unicode="&#xfb40;" horiz-adv-x="706" 
d="M53 0l31 203h264v690h-209l31 203h315q39 0 66 -28t27 -67v-1001h-525zM190 469q-32 0 -55.5 23.5t-23.5 56.5t23.5 56.5t55.5 23.5q34 0 57 -23t23 -57t-23 -57t-57 -23z" />
    <glyph glyph-name="uniFB41" unicode="&#xfb41;" horiz-adv-x="1171" 
d="M252 -12l-152 952l50 156h915l29 -158l-131 -686q-86 -88 -257 -158.5t-382 -105.5h-72zM422 227q102 15 195 52t153 86l90 528h-532zM584 518q-33 0 -56.5 23.5t-23.5 56.5t23.5 56.5t56.5 23.5q34 0 57 -23t23 -57t-23 -57t-57 -23z" />
    <glyph glyph-name="uniFB43" unicode="&#xfb43;" horiz-adv-x="1183" 
d="M829 -373v1266h-395v-401l-225 -43v444h-115l31 203h844q37 0 62.5 -27t25.5 -65v-1334zM614 532q-32 0 -55.5 23t-23.5 57t23.5 57t55.5 23q34 0 57 -23t23 -57t-23 -57t-57 -23z" />
    <glyph glyph-name="uniFB44" unicode="&#xfb44;" horiz-adv-x="1175" 
d="M127 0l31 203h655v690h-397v-363l-226 -43v406h-112l28 205l850 -2q37 0 62.5 -26.5t25.5 -63.5v-842l-49 -164h-868zM610 571q-33 0 -56.5 23.5t-23.5 56.5t23.5 56.5t56.5 23.5q34 0 57 -23t23 -57t-23 -57t-57 -23z" />
    <glyph glyph-name="uniFB46" unicode="&#xfb46;" horiz-adv-x="1118" 
d="M96 0l29 203h498l-553 786l182 133l416 -602l161 588l226 -66l-178 -624l-109 -33l123 -180l94 -74l-39 -131h-850zM248 309q-33 0 -56.5 23.5t-23.5 56.5t23.5 56.5t56.5 23.5q34 0 57 -23t23 -57t-23 -57t-57 -23z" />
    <glyph glyph-name="uniFB47" unicode="&#xfb47;" horiz-adv-x="1202" 
d="M616 0l256 893h-757l32 203h953l26 -156l-274 -940h-236zM575 598q-33 0 -56 23t-23 57t23 57t56 23q34 0 57 -23t23 -57t-23 -57t-57 -23zM145 -369v953l228 30v-954z" />
    <glyph glyph-name="uniFB48" unicode="&#xfb48;" horiz-adv-x="1019" 
d="M659 0v893h-585l30 203h701q36 0 62 -27t26 -65v-1004h-234zM379 457q-33 0 -56.5 23.5t-23.5 56.5t23.5 56t56.5 23q34 0 57 -22.5t23 -56.5t-23 -57t-57 -23z" />
    <glyph glyph-name="uniFB49" unicode="&#xfb49;" horiz-adv-x="1304" 
d="M250 -12l-139 936l30 172h158l84 -586l207 586h182v-199l-256 -467l-125 31l33 -236q159 29 297.5 88t222.5 133l72 650h186l12 -160l-71 -592q-114 -127 -339.5 -227t-463.5 -129h-90zM762 461q-33 0 -56.5 23.5t-23.5 56.5t23.5 56.5t56.5 23.5q34 0 57 -23t23 -57
t-23 -57t-57 -23z" />
    <glyph glyph-name="uniFB4A" unicode="&#xfb4a;" horiz-adv-x="1257" 
d="M61 0l29 203h150v608l98 82h-221l30 203h897q34 0 60 -26t26 -64v-1006h-229v893h-430v-893h-410zM690 457q-33 0 -56.5 23.5t-23.5 56.5t23.5 56t56.5 23q34 0 57 -22.5t23 -56.5t-23 -57t-57 -23z" />
    <glyph glyph-name="uniFB4B" unicode="&#xfb4b;" horiz-adv-x="608" 
d="M276 1184q-32 0 -55.5 23t-23.5 57q0 32 23.5 54.5t55.5 22.5q34 0 57 -22.5t23 -54.5q0 -34 -23 -57t-57 -23zM242 0v893h-174l30 203h293q34 0 58 -25t24 -59v-1012h-231z" />
    </font>
</defs>
</svg>
