<svg xmlns="http://www.w3.org/2000/svg" xmlns:xlink="http://www.w3.org/1999/xlink" version="1.1" x="0px" y="0px" viewBox="0 0 128 160" style="enable-background:new 0 0 128 128;" xml:space="preserve">
<title>Miscellaneous 241_expandline</title>

<path fill="white" d="M122,28v4c1.1,0,2,0.9,2,2v63c0,1.1-0.9,2-2,2H79.6c-1.3,0-2.6,0.4-3.6,1.2l-1.9,2c-1,1-2.3,1.6-3.8,1.8H57.7  c-1.4-0.1-2.8-0.7-3.8-1.7l-1.7-1.9c-1.1-0.9-2.4-1.4-3.8-1.4H6c-1.1,0-2-0.9-2-2V34c0-1.1,0.9-2,2-2v-4c-3.3,0-6,2.7-6,6v63  c0,3.3,2.7,6,6,6h42.4c0.6,0,1.2,0.3,1.5,0.7l0.9,1.1c1.8,1.9,4.2,3.1,6.8,3.2h12.7c2.6-0.1,5.1-1.3,6.8-3.2l0.9-1.1  c0.4-0.5,0.9-0.7,1.5-0.7H122c3.3,0,6-2.7,6-6V34C128,30.7,125.3,28,122,28z"/>
<path fill="white" d="M12,94h38.6c0.5,0,1,0.2,1.4,0.6l3.6,3.6c1.1,1.1,2.7,1.8,4.2,1.8H68c1.6,0,3.1-0.6,4.2-1.8l3.6-3.6  c0.4-0.4,0.9-0.6,1.4-0.6H116c1.1,0,2-0.9,2-2l0-68c0-2.2-1.8-4-4-4H76.4C70,20.1,66.1,23,64,26.1c-2.1-3-6-6-12.4-6.1H14  c-2.2,0-4,1.8-4,4l0,68C10,93.1,10.9,94,12,94C12,94,12,94,12,94z M66,30.9c0.3-1.1,2.4-6.9,10.4-6.9l37.6,0l0,66H77.3  c-1.6,0-3.1,0.6-4.2,1.8l-3.6,3.6C69.1,95.8,68.6,96,68,96h-2V30.9z M51.6,24c8.1,0.1,10.1,5.8,10.4,6.9V96h-2c-0.5,0-1-0.2-1.4-0.6  l-3.6-3.6c-1.1-1.1-2.7-1.8-4.2-1.8H14l0-66H51.6z"/><path d="M30,35h16c1.1,0,2-0.9,2-2c0-1.1-0.9-2-2-2H30c-1.1,0-2,0.9-2,2C28,34.1,28.9,35,30,35z"/><path d="M30,43h16c1.1,0,2-0.9,2-2c0-1.1-0.9-2-2-2H30c-1.1,0-2,0.9-2,2C28,42.1,28.9,43,30,43z"/>
<path fill="white" d="M30,75h16c1.1,0,2-0.9,2-2s-0.9-2-2-2H30c-1.1,0-2,0.9-2,2S28.9,75,30,75z"/>
<path fill="white" d="M30,83h16c1.1,0,2-0.9,2-2s-0.9-2-2-2H30c-1.1,0-2,0.9-2,2S28.9,83,30,83z"/>
<path fill="white" d="M82,35h16c1.1,0,2-0.9,2-2c0-1.1-0.9-2-2-2H82c-1.1,0-2,0.9-2,2C80,34.1,80.9,35,82,35z"/>
<path fill="white" d="M82,43h16c1.1,0,2-0.9,2-2c0-1.1-0.9-2-2-2H82c-1.1,0-2,0.9-2,2C80,42.1,80.9,43,82,43z"/>
<path fill="white" d="M82,75h16c1.1,0,2-0.9,2-2s-0.9-2-2-2H82c-1.1,0-2,0.9-2,2S80.9,75,82,75z"/>
<path fill="white" d="M82,83h16c1.1,0,2-0.9,2-2s-0.9-2-2-2H82c-1.1,0-2,0.9-2,2S80.9,83,82,83z"/>
</svg>