<svg width="20" height="20" viewBox="0 0 20 20" fill="none" xmlns="http://www.w3.org/2000/svg">
<path fill-rule="evenodd" clip-rule="evenodd" d="M5.1234 7.95116C4.52318 4.95002 6.81865 2.15 9.87922 2.15H10.5C13.1866 2.15 15.35 4.35884 15.35 7.02932C15.35 8.52269 14.6616 9.95115 13.4776 10.872L10.9079 12.8707C10.8714 12.8991 10.85 12.9428 10.85 12.9891V13.5C10.85 13.9694 10.4694 14.35 10 14.35C9.53056 14.35 9.15 13.9694 9.15 13.5V12.9891C9.15 12.4182 9.41358 11.8793 9.86421 11.5288L12.4339 9.53012C13.1986 8.93535 13.65 8.00468 13.65 7.02932C13.65 5.28153 12.2316 3.85 10.5 3.85H9.87922C7.89142 3.85 6.40055 5.66857 6.79039 7.61777L6.8335 7.8333C6.92556 8.29363 6.62703 8.74143 6.1667 8.83349C5.70638 8.92556 5.25858 8.62702 5.16651 8.1667L5.1234 7.95116Z" fill="black"/>
<circle cx="10" cy="16.7" r="0.6" stroke="black" stroke-width="1.2"/>
</svg>
